if (_typeface_js && _typeface_js.loadFace) _typeface_js.loadFace({"glyphs":{"S":{"x_min":72,"x_max":762,"ha":834,"o":"m 72 351 l 93 351 q 93 308 93 323 q 179 82 93 161 q 429 3 266 3 q 636 55 557 3 q 740 244 740 123 q 668 389 740 343 q 505 453 619 422 l 326 503 q 179 559 224 531 q 120 625 141 583 q 100 713 100 666 q 137 834 100 779 q 403 943 210 943 q 681 830 597 943 q 734 657 734 762 q 734 633 734 649 l 711 633 q 711 655 711 643 q 647 837 711 773 q 401 921 565 921 q 193 861 270 921 q 140 795 160 836 q 121 713 121 755 q 155 611 121 655 q 244 552 183 575 q 331 524 270 541 l 511 474 q 635 433 605 447 q 762 244 762 376 q 704 86 762 154 q 426 -18 615 -18 q 165 65 259 -18 q 72 313 72 147 q 72 351 72 327 "},"¦":{"x_min":327,"x_max":354,"ha":681,"o":"m 327 925 l 354 925 l 354 481 l 327 481 l 327 925 m 327 213 l 354 213 l 354 -232 l 327 -232 l 327 213 "},"/":{"x_min":-16.609375,"x_max":491.140625,"ha":541,"o":"m 491 939 l 9 -162 l -16 -162 l 464 939 l 491 939 "},"y":{"x_min":9.5625,"x_max":559.859375,"ha":569,"o":"m 559 657 l 273 -96 q 215 -198 242 -177 q 123 -224 184 -224 q 86 -221 109 -224 l 86 -199 q 122 -202 110 -202 q 202 -179 179 -202 q 246 -99 224 -157 l 285 1 l 9 657 l 36 657 l 298 27 l 536 657 l 559 657 "},"Á":{"x_min":9.296875,"x_max":768.28125,"ha":777,"o":"m 624 301 l 155 301 l 34 0 l 9 0 l 380 925 l 404 925 l 768 0 l 743 0 l 624 301 m 614 323 l 392 893 l 165 323 l 614 323 m 356 1023 l 313 1023 l 531 1157 l 572 1157 l 356 1023 "},"g":{"x_min":41,"x_max":594,"ha":690,"o":"m 572 656 l 594 656 l 594 61 q 578 -81 594 -38 q 319 -240 521 -240 q 117 -164 180 -240 q 81 -38 81 -120 l 103 -38 q 145 -159 103 -117 q 322 -218 204 -218 q 525 -133 460 -218 q 572 64 572 -72 l 572 223 q 506 112 548 153 q 313 38 429 38 q 103 137 179 38 q 41 352 41 218 q 118 589 41 503 q 319 675 195 675 q 515 593 437 675 q 572 496 544 563 l 572 656 m 316 653 q 133 574 203 653 q 62 353 62 495 q 120 151 62 227 q 204 84 153 108 q 313 59 255 59 q 503 141 429 59 q 572 350 572 218 q 500 571 572 492 q 316 653 427 653 "},"²":{"x_min":73.359375,"x_max":434,"ha":508,"o":"m 434 375 l 434 354 l 73 354 q 108 442 81 407 q 186 512 134 475 q 252 558 195 518 q 354 646 316 603 q 399 750 399 696 q 357 842 399 809 q 256 873 317 873 q 126 807 165 873 q 105 719 105 771 q 107 703 105 713 l 84 703 q 84 713 84 712 q 116 831 84 789 q 256 894 164 894 q 370 858 323 894 q 421 750 421 819 q 347 608 421 679 q 220 509 310 572 q 113 410 133 449 q 101 375 105 393 l 434 375 "},"–":{"x_min":95,"x_max":597,"ha":679,"o":"m 597 340 l 597 319 l 95 319 l 95 340 l 597 340 "},"ë":{"x_min":41,"x_max":610,"ha":651,"o":"m 578 229 l 601 229 q 537 79 585 139 q 328 -18 461 -18 q 132 63 211 -18 q 41 322 41 158 q 114 572 41 476 q 211 649 152 621 q 333 676 267 676 q 506 613 434 676 q 601 438 581 547 q 610 331 610 393 q 610 317 610 330 l 67 317 q 117 113 67 188 q 329 3 191 3 q 530 104 462 3 q 578 229 567 160 m 587 339 q 570 473 587 420 q 478 608 541 561 q 330 654 416 654 q 165 595 233 654 q 68 339 68 513 l 587 339 m 466 762 l 444 762 l 444 899 l 466 899 l 466 762 m 206 762 l 185 762 l 185 899 l 206 899 l 206 762 "},"ƒ":{"x_min":-11.96875,"x_max":585.515625,"ha":650,"o":"m 487 630 l 485 614 l 321 614 l 223 95 q 160 -91 199 -32 q 41 -155 120 -155 q -11 -147 14 -155 l -7 -128 q 45 -135 23 -135 q 151 -69 113 -135 q 212 139 184 -14 l 301 614 l 149 614 l 152 630 l 303 630 l 328 756 q 390 934 355 892 q 516 986 434 986 q 585 978 552 986 l 580 960 q 513 968 544 968 q 400 915 439 968 q 348 768 368 873 l 324 630 l 487 630 "},"Î":{"x_min":-46.75,"x_max":348.6875,"ha":302,"o":"m 161 925 l 161 0 l 140 0 l 140 925 l 161 925 m 348 1021 l 309 1021 l 148 1141 l -8 1021 l -46 1021 l 134 1159 l 163 1159 l 348 1021 "},"e":{"x_min":41,"x_max":610,"ha":651,"o":"m 578 229 l 601 229 q 537 79 585 139 q 328 -18 461 -18 q 132 63 211 -18 q 41 322 41 158 q 114 572 41 476 q 211 649 152 621 q 333 676 267 676 q 506 613 434 676 q 601 438 581 547 q 610 331 610 393 q 610 317 610 330 l 67 317 q 117 113 67 188 q 329 3 191 3 q 530 104 462 3 q 578 229 567 160 m 587 339 q 570 473 587 420 q 478 608 541 561 q 330 654 416 654 q 165 595 233 654 q 68 339 68 513 l 587 339 "},"Ã":{"x_min":9.296875,"x_max":768.28125,"ha":777,"o":"m 624 301 l 155 301 l 34 0 l 9 0 l 380 925 l 404 925 l 768 0 l 743 0 l 624 301 m 614 323 l 392 893 l 165 323 l 614 323 m 558 1142 q 473 1044 540 1044 q 390 1082 437 1044 q 330 1122 348 1116 q 308 1127 318 1127 q 241 1046 257 1127 l 218 1046 q 239 1103 224 1080 q 308 1148 267 1148 q 394 1105 342 1148 q 473 1064 443 1064 q 535 1142 516 1064 l 558 1142 "},"J":{"x_min":45,"x_max":533.265625,"ha":656,"o":"m 533 925 l 533 248 q 518 127 533 169 q 413 11 489 50 q 279 -18 353 -18 q 99 49 160 -18 q 45 245 45 111 q 45 288 45 262 l 67 288 q 67 238 67 254 q 113 67 67 122 q 279 3 169 3 q 477 99 414 3 q 509 199 502 137 q 512 288 512 228 l 512 925 l 533 925 "},"»":{"x_min":54,"x_max":332,"ha":414,"o":"m 54 519 l 178 344 l 178 321 l 54 149 l 54 191 l 158 333 l 54 476 l 54 519 m 208 519 l 332 344 l 332 321 l 208 149 l 208 191 l 312 333 l 208 476 l 208 519 "},"©":{"x_min":64,"x_max":1002,"ha":1065,"o":"m 741 413 l 763 413 q 748 338 759 366 q 657 226 720 268 q 538 193 604 193 q 375 262 441 193 q 302 464 302 338 q 371 666 302 589 q 542 741 439 741 q 696 681 634 741 q 757 562 744 636 l 735 562 q 716 619 728 597 q 643 695 690 668 q 543 720 599 720 q 387 652 448 720 q 324 463 324 582 q 389 278 324 347 q 538 214 450 214 q 684 279 625 214 q 741 413 734 332 m 539 942 q 778 870 665 942 q 950 680 891 800 q 1002 462 1002 577 q 932 212 1002 327 q 746 35 864 97 q 533 -17 645 -17 q 289 53 402 -17 q 115 244 176 123 q 64 461 64 348 q 133 713 64 597 q 321 889 200 827 q 539 942 421 942 m 539 920 q 217 786 349 920 q 119 638 154 723 q 85 461 85 553 q 151 222 85 334 q 330 54 218 113 q 533 4 426 4 q 767 72 659 4 q 932 254 875 140 q 980 462 980 352 q 914 702 980 591 q 736 870 850 810 q 539 920 641 920 "},"˘":{"x_min":182.109375,"x_max":497.796875,"ha":681,"o":"m 473 903 l 497 903 q 474 835 491 862 q 339 761 428 761 q 208 829 254 761 q 182 903 186 861 l 206 903 q 230 837 212 862 q 340 782 269 782 q 457 852 422 782 q 473 903 468 871 "},"ò":{"x_min":41,"x_max":626,"ha":667,"o":"m 334 676 q 504 620 431 676 q 626 314 626 527 q 554 81 626 170 q 333 -18 473 -18 q 111 91 190 -18 q 41 330 41 189 q 127 587 41 491 q 334 676 207 676 m 334 654 q 143 572 217 654 q 62 330 62 484 q 128 104 62 196 q 332 3 201 3 q 538 95 463 3 q 604 314 604 177 q 542 549 604 459 q 334 654 470 654 m 348 763 l 131 900 l 172 900 l 390 763 l 348 763 "},"^":{"x_min":60.484375,"x_max":619.40625,"ha":681,"o":"m 95 545 l 60 545 l 322 925 l 357 925 l 619 545 l 583 545 l 338 903 l 95 545 "},"«":{"x_min":82,"x_max":360,"ha":415,"o":"m 360 519 l 360 476 l 256 333 l 360 191 l 360 149 l 236 321 l 236 344 l 360 519 m 206 519 l 206 476 l 102 333 l 206 191 l 206 149 l 82 321 l 82 344 l 206 519 "},"D":{"x_min":122,"x_max":823.265625,"ha":869,"o":"m 122 0 l 122 925 l 388 925 q 588 894 512 925 q 770 720 712 844 q 823 464 823 609 q 778 231 823 336 q 600 36 719 92 q 387 0 523 0 l 122 0 m 143 21 l 380 21 q 591 55 518 21 q 760 241 704 108 q 802 470 802 340 q 671 818 802 702 q 533 889 613 870 q 377 903 472 903 l 143 903 l 143 21 "},"ÿ":{"x_min":9.5625,"x_max":559.171875,"ha":568,"o":"m 559 657 l 273 -96 q 215 -198 242 -177 q 123 -224 184 -224 q 86 -221 109 -224 l 86 -199 q 122 -202 110 -202 q 201 -179 178 -202 q 246 -99 224 -157 l 284 1 l 9 657 l 36 657 l 297 27 l 535 657 l 559 657 m 424 762 l 403 762 l 403 899 l 424 899 l 424 762 m 165 762 l 144 762 l 144 899 l 165 899 l 165 762 "},"í":{"x_min":49.15625,"x_max":307.671875,"ha":212,"o":"m 116 657 l 116 0 l 95 0 l 95 657 l 116 657 m 91 763 l 49 763 l 266 899 l 307 899 l 91 763 "},"ˆ":{"x_min":142.890625,"x_max":538.328125,"ha":681,"o":"m 538 763 l 499 763 l 338 882 l 180 763 l 142 763 l 324 901 l 353 901 l 538 763 "},"w":{"x_min":27.25,"x_max":927.796875,"ha":954,"o":"m 901 657 l 927 657 l 711 0 l 680 0 l 477 638 l 271 0 l 236 0 l 27 657 l 51 657 l 253 17 l 461 657 l 495 657 l 695 25 l 901 657 "},"$":{"x_min":50.015625,"x_max":720.265625,"ha":771,"o":"m 50 271 l 73 271 q 73 260 73 263 q 137 78 73 137 q 282 9 189 28 q 373 2 314 2 l 373 447 q 198 499 239 476 q 96 672 96 556 q 147 814 96 755 q 373 897 218 897 l 373 993 l 395 993 l 395 897 q 603 837 529 897 q 674 711 660 792 q 678 642 678 687 l 655 642 q 591 818 655 764 q 395 875 522 875 l 395 465 q 583 415 511 445 q 720 220 720 356 q 656 63 720 126 q 496 -11 598 6 q 395 -19 458 -19 l 395 -116 l 373 -116 l 373 -18 q 210 4 274 -18 q 92 91 138 28 q 54 216 54 143 q 50 271 50 230 m 395 2 q 581 36 512 2 q 664 107 635 63 q 699 221 699 157 q 650 346 699 296 q 476 423 605 391 q 395 442 444 431 l 395 2 m 373 877 q 214 840 282 877 q 142 767 167 813 q 117 671 117 723 q 224 509 117 560 q 373 471 256 495 l 373 877 "},"\\":{"x_min":46.515625,"x_max":554.28125,"ha":541,"o":"m 46 939 l 73 939 l 554 -162 l 527 -162 l 46 939 "},"Ì":{"x_min":-32.453125,"x_max":226.078125,"ha":303,"o":"m 162 925 l 162 0 l 141 0 l 141 925 l 162 925 m 184 1023 l -32 1158 l 8 1158 l 226 1023 l 184 1023 "},"µ":{"x_min":134,"x_max":625.265625,"ha":772,"o":"m 134 -222 l 134 657 l 155 657 l 155 326 q 169 228 155 291 q 253 55 193 116 q 373 2 304 2 q 498 44 441 2 q 588 165 561 90 q 604 290 604 208 l 604 657 l 625 657 l 625 0 l 604 0 l 604 161 q 556 68 588 106 q 378 -19 484 -19 q 181 130 241 -19 q 155 216 172 150 l 155 -222 l 134 -222 "},"Ç":{"x_min":45,"x_max":845.1875,"ha":896,"o":"m 827 356 l 845 356 q 782 152 845 238 q 635 23 720 68 q 458 -19 555 -19 q 171 103 288 -19 q 45 458 45 235 q 166 813 45 678 q 465 944 283 944 q 686 878 590 944 q 837 641 811 793 l 815 641 q 746 794 796 731 q 466 922 644 922 q 181 799 292 922 q 66 455 66 670 q 119 209 66 306 q 282 44 179 99 q 457 2 361 2 q 679 77 584 2 q 814 276 782 159 q 827 356 823 307 m 457 -84 l 479 -84 l 479 -181 q 467 -275 479 -239 q 416 -333 453 -306 l 416 -300 q 450 -254 441 -279 q 457 -181 457 -230 l 457 -84 "},"’":{"x_min":54,"x_max":110,"ha":163,"o":"m 86 925 l 110 925 l 110 810 q 54 645 110 719 l 54 683 q 86 803 86 723 l 86 925 "},"-":{"x_min":0,"x_max":282,"ha":282,"o":"m 282 340 l 282 319 l 0 319 l 0 340 l 282 340 "},"Q":{"x_min":45,"x_max":904.9375,"ha":932,"o":"m 904 -2 l 891 -23 l 738 85 q 469 -19 628 -19 q 150 128 271 -19 q 45 450 45 254 q 161 807 45 671 q 467 944 278 944 q 776 802 657 944 q 887 465 887 670 q 757 101 887 252 l 904 -2 m 573 227 l 737 114 q 805 212 781 168 q 865 467 865 323 q 758 790 865 667 q 628 887 704 852 q 467 922 551 922 q 248 854 346 922 q 102 664 148 786 q 66 449 66 568 q 167 140 66 260 q 306 36 225 73 q 467 2 383 2 q 718 98 619 2 l 560 208 l 573 227 "},"M":{"x_min":122,"x_max":979,"ha":1101,"o":"m 122 0 l 122 925 l 157 925 l 549 23 l 944 925 l 979 925 l 979 0 l 957 0 l 957 893 l 564 0 l 534 0 l 143 893 l 143 0 l 122 0 "},"C":{"x_min":45,"x_max":845.1875,"ha":896,"o":"m 827 356 l 845 356 q 782 152 845 238 q 635 23 720 68 q 458 -19 555 -19 q 171 103 288 -19 q 45 458 45 235 q 166 813 45 678 q 465 944 283 944 q 686 878 590 944 q 837 641 811 793 l 815 641 q 746 794 796 731 q 466 922 644 922 q 181 799 292 922 q 66 455 66 671 q 119 209 66 306 q 282 44 179 100 q 457 2 362 2 q 679 77 584 2 q 814 276 782 159 q 827 356 823 307 "},"!":{"x_min":100,"x_max":121.265625,"ha":221,"o":"m 121 241 l 100 241 l 100 925 l 121 925 l 121 241 m 121 125 l 121 0 l 100 0 l 100 125 l 121 125 "},"ç":{"x_min":41,"x_max":600.625,"ha":642,"o":"m 579 225 l 600 225 q 536 69 584 126 q 329 -19 461 -19 q 119 79 196 -19 q 41 329 41 179 q 129 587 41 488 q 335 675 208 675 q 548 583 473 675 q 588 465 588 534 l 566 465 q 517 585 566 536 q 337 653 449 653 q 142 571 215 653 q 62 332 62 481 q 134 94 62 191 q 327 2 203 2 q 526 91 458 2 q 579 225 563 139 m 330 -91 l 351 -91 l 351 -183 q 348 -237 351 -223 q 290 -323 339 -284 l 290 -292 q 324 -244 317 -268 q 330 -180 330 -223 l 330 -91 "},"È":{"x_min":122,"x_max":728.109375,"ha":828,"o":"m 122 0 l 122 925 l 728 925 l 728 903 l 143 903 l 143 490 l 691 490 l 691 469 l 143 469 l 143 21 l 728 21 l 728 0 l 122 0 m 446 1023 l 229 1158 l 270 1158 l 488 1023 l 446 1023 "},"{":{"x_min":163,"x_max":395,"ha":449,"o":"m 395 924 l 395 904 l 376 904 q 329 895 357 904 q 277 845 295 884 q 266 754 266 824 l 266 543 q 246 441 266 472 q 191 388 228 408 q 250 328 231 367 q 265 234 265 297 l 265 23 q 275 -60 265 -43 q 375 -124 300 -124 l 395 -124 l 395 -147 l 378 -147 q 263 -86 291 -147 q 243 62 243 -49 l 243 240 q 217 343 243 309 q 163 377 199 364 l 163 400 q 217 433 199 412 q 243 537 243 467 l 243 714 q 263 863 243 826 q 378 924 291 924 l 395 924 "},"X":{"x_min":36.546875,"x_max":767.625,"ha":804,"o":"m 767 0 l 739 0 l 403 456 l 65 0 l 36 0 l 389 475 l 57 925 l 85 925 l 403 494 l 723 925 l 750 925 l 417 475 l 767 0 "},"ô":{"x_min":41,"x_max":626,"ha":667,"o":"m 334 676 q 504 620 431 676 q 626 314 626 527 q 554 81 626 170 q 333 -18 473 -18 q 111 91 190 -18 q 41 330 41 189 q 127 587 41 491 q 334 676 207 676 m 334 654 q 143 572 217 654 q 62 330 62 484 q 128 104 62 196 q 332 3 201 3 q 538 95 463 3 q 604 314 604 177 q 542 549 604 459 q 334 654 470 654 m 531 763 l 492 763 l 331 883 l 173 763 l 136 763 l 317 901 l 346 901 l 531 763 "},"¼":{"x_min":119.109375,"x_max":1092,"ha":1156,"o":"m 281 353 l 260 353 l 260 852 q 178 786 232 816 q 119 762 152 772 l 119 785 q 262 884 205 808 l 281 884 l 281 353 m 287 0 l 869 925 l 895 925 l 314 0 l 287 0 m 996 0 l 974 0 l 974 139 l 712 139 l 712 163 l 972 531 l 996 531 l 996 160 l 1092 160 l 1092 139 l 996 139 l 996 0 m 974 160 l 974 495 l 738 160 l 974 160 "},"#":{"x_min":45.859375,"x_max":731.0625,"ha":777,"o":"m 180 318 l 45 318 l 49 340 l 184 340 l 241 637 l 106 637 l 110 658 l 245 658 l 295 925 l 317 925 l 266 658 l 574 658 l 626 925 l 647 925 l 596 658 l 731 658 l 726 637 l 592 637 l 535 340 l 669 340 l 665 318 l 531 318 l 470 0 l 449 0 l 510 318 l 201 318 l 140 0 l 119 0 l 180 318 m 262 637 l 206 340 l 514 340 l 570 637 l 262 637 "},"Ê":{"x_min":122,"x_max":728.109375,"ha":828,"o":"m 122 0 l 122 925 l 728 925 l 728 903 l 143 903 l 143 490 l 691 490 l 691 469 l 143 469 l 143 21 l 728 21 l 728 0 l 122 0 m 611 1021 l 572 1021 l 411 1141 l 254 1021 l 216 1021 l 397 1159 l 427 1159 l 611 1021 "},")":{"x_min":54.828125,"x_max":236.265625,"ha":472,"o":"m 54 939 l 82 939 q 182 716 149 816 q 236 374 236 550 q 181 35 236 199 q 96 -162 153 -49 l 73 -162 q 161 40 135 -35 q 215 377 215 199 q 160 712 215 548 q 54 939 124 819 "},"Å":{"x_min":9.203125,"x_max":768.0625,"ha":777,"o":"m 623 301 l 155 301 l 34 0 l 9 0 l 380 925 l 404 925 l 768 0 l 743 0 l 623 301 m 613 323 l 391 893 l 165 323 l 613 323 m 389 1195 q 457 1168 430 1195 q 486 1096 486 1140 q 457 1025 486 1053 q 388 998 430 998 q 319 1025 346 998 q 291 1096 291 1053 q 319 1168 291 1141 q 389 1195 347 1195 m 389 1174 q 334 1152 355 1174 q 312 1096 312 1131 q 334 1041 312 1062 q 388 1020 355 1020 q 443 1041 421 1020 q 465 1096 465 1062 q 443 1152 465 1131 q 389 1174 421 1174 "},"ø":{"x_min":41.03125,"x_max":632,"ha":673,"o":"m 614 645 l 632 627 l 569 560 q 632 322 632 458 q 556 76 632 165 q 340 -18 475 -18 q 122 82 206 -18 l 58 11 l 41 28 l 109 102 q 47 332 47 204 q 126 579 47 486 q 340 675 207 675 q 504 625 433 675 q 554 580 525 610 l 614 645 m 138 99 q 195 46 167 64 q 341 3 257 3 q 540 91 466 3 q 610 316 610 175 q 552 543 610 452 l 138 99 m 537 563 q 336 653 455 653 q 142 564 215 653 q 68 332 68 475 q 124 119 68 201 l 537 563 "},"â":{"x_min":41,"x_max":629,"ha":648,"o":"m 629 21 l 629 0 q 547 10 565 0 q 523 49 525 23 q 521 91 521 62 l 521 160 q 457 60 495 99 q 264 -18 379 -18 q 105 31 170 -18 q 41 170 41 80 q 169 347 41 297 q 402 368 222 368 q 488 384 467 368 q 517 411 511 395 q 521 448 521 419 l 521 474 q 504 568 521 535 q 321 653 462 653 q 144 584 197 653 q 102 460 112 540 l 79 460 q 136 609 88 559 q 318 675 198 675 q 489 622 428 675 q 535 548 524 591 q 543 468 543 519 l 543 101 q 549 40 543 49 q 604 21 560 21 l 629 21 m 521 390 q 468 357 503 367 q 317 344 433 344 q 128 295 192 344 q 76 232 95 273 q 62 165 62 200 q 121 44 62 88 q 264 3 177 3 q 461 99 386 3 q 521 270 521 173 l 521 390 m 521 763 l 481 763 l 321 883 l 163 763 l 126 763 l 307 901 l 336 901 l 521 763 "},"}":{"x_min":54,"x_max":285,"ha":448,"o":"m 54 -147 l 54 -127 l 71 -127 q 119 -118 91 -127 q 170 -68 152 -107 q 183 22 183 -47 l 183 233 q 201 336 183 303 q 257 388 219 368 q 199 448 216 410 q 183 542 183 480 l 183 753 q 173 837 183 820 q 73 901 148 901 l 54 901 l 54 923 l 69 923 q 185 863 156 923 q 205 714 205 827 l 205 536 q 230 433 205 467 q 285 399 248 412 l 285 377 q 230 343 248 365 q 205 239 205 309 l 205 62 q 185 -86 205 -50 q 69 -147 156 -147 l 54 -147 "},"‰":{"x_min":31,"x_max":1300,"ha":1323,"o":"m 748 938 l 151 -38 l 122 -38 l 718 938 l 748 938 m 646 423 q 797 352 744 423 q 840 208 840 294 q 788 46 840 106 q 645 -14 735 -14 q 490 57 542 -14 q 449 204 449 113 q 501 364 449 307 q 646 423 554 423 m 645 402 q 506 339 553 402 q 470 203 470 291 q 514 60 470 110 q 644 7 562 7 q 780 72 732 7 q 818 210 818 123 q 780 339 818 286 q 645 402 734 402 m 1107 425 q 1257 355 1202 425 q 1300 207 1300 299 q 1250 51 1300 113 q 1105 -13 1198 -13 q 949 59 1000 -13 q 908 205 908 117 q 958 364 908 307 q 1107 425 1013 425 m 1108 403 q 965 336 1014 403 q 929 208 929 288 q 972 66 929 120 q 1104 8 1017 8 q 1243 76 1196 8 q 1278 209 1278 127 q 1238 345 1278 297 q 1108 403 1190 403 m 228 915 q 382 841 327 915 q 422 696 422 786 q 370 538 422 602 q 225 476 317 476 q 70 550 122 476 q 31 696 31 608 q 80 851 31 794 q 228 915 134 915 m 226 893 q 92 831 139 893 q 52 692 52 778 q 96 550 52 604 q 224 497 141 497 q 367 568 320 497 q 401 697 401 621 q 361 833 401 783 q 226 893 313 893 "},"Ä":{"x_min":9.734375,"x_max":768.515625,"ha":777,"o":"m 624 301 l 155 301 l 35 0 l 9 0 l 381 925 l 405 925 l 768 0 l 743 0 l 624 301 m 614 323 l 392 893 l 165 323 l 614 323 m 529 1021 l 508 1021 l 508 1158 l 529 1158 l 529 1021 m 270 1021 l 249 1021 l 249 1158 l 270 1158 l 270 1021 "},"¸":{"x_min":310,"x_max":371.265625,"ha":681,"o":"m 350 -91 l 371 -91 l 371 -182 q 368 -236 371 -222 q 310 -322 359 -284 l 310 -292 q 344 -243 337 -267 q 350 -179 350 -222 l 350 -91 "},"a":{"x_min":41,"x_max":629,"ha":648,"o":"m 629 21 l 629 0 q 547 10 565 0 q 523 49 525 23 q 521 91 521 62 l 521 160 q 457 60 495 99 q 264 -18 379 -18 q 105 31 170 -18 q 41 170 41 80 q 169 347 41 297 q 402 368 222 368 q 488 384 467 368 q 517 411 511 395 q 521 448 521 419 l 521 474 q 504 568 521 535 q 321 653 462 653 q 144 584 197 653 q 102 460 112 540 l 79 460 q 136 609 88 559 q 318 675 198 675 q 489 622 428 675 q 535 548 524 591 q 543 468 543 519 l 543 101 q 549 40 543 49 q 604 21 560 21 l 629 21 m 521 390 q 468 357 503 367 q 317 344 433 344 q 128 295 192 344 q 76 232 95 273 q 62 165 62 200 q 121 44 62 88 q 264 3 177 3 q 461 99 386 3 q 521 270 521 173 l 521 390 "},"—":{"x_min":0,"x_max":848,"ha":848,"o":"m 848 340 l 848 319 l 0 319 l 0 340 l 848 340 "},"=":{"x_min":135,"x_max":637,"ha":772,"o":"m 135 563 l 637 563 l 637 542 l 135 542 l 135 563 m 135 393 l 637 393 l 637 372 l 135 372 l 135 393 "},"N":{"x_min":122,"x_max":806.265625,"ha":929,"o":"m 122 0 l 122 925 l 153 925 l 785 28 l 785 925 l 806 925 l 806 0 l 776 0 l 143 899 l 143 0 l 122 0 "},"˚":{"x_min":243,"x_max":438.265625,"ha":681,"o":"m 341 936 q 409 908 382 936 q 438 837 438 881 q 409 766 438 793 q 340 739 382 739 q 271 766 298 739 q 243 837 243 793 q 271 908 243 881 q 341 936 299 936 m 341 914 q 286 893 307 914 q 264 837 264 871 q 286 781 264 803 q 340 760 307 760 q 395 781 373 760 q 417 837 417 803 q 395 893 417 872 q 341 914 373 914 "},"ú":{"x_min":82,"x_max":573.265625,"ha":668,"o":"m 573 657 l 573 0 l 552 0 l 552 161 q 504 68 536 106 q 320 -19 432 -19 q 129 76 199 -19 q 82 261 82 142 l 82 657 l 103 657 l 103 261 q 157 77 103 143 q 317 2 218 2 q 506 105 435 2 q 545 195 535 147 q 552 290 552 229 l 552 657 l 573 657 m 319 763 l 277 763 l 494 899 l 536 899 l 319 763 "},"2":{"x_min":93.375,"x_max":677,"ha":771,"o":"m 677 21 l 677 0 l 93 0 q 124 101 103 60 q 260 242 163 171 q 386 333 290 265 q 558 482 494 410 q 634 664 634 569 q 560 826 634 767 q 390 880 495 880 q 169 765 236 880 q 133 610 133 703 q 133 592 133 606 l 110 592 q 129 735 110 680 q 250 870 161 827 q 389 902 314 902 q 574 843 499 902 q 656 665 656 778 q 596 496 656 574 q 471 372 549 435 q 325 264 435 341 q 144 92 177 159 q 122 21 128 58 l 677 21 "},"ü":{"x_min":82,"x_max":573.265625,"ha":668,"o":"m 573 657 l 573 0 l 552 0 l 552 161 q 504 68 536 106 q 320 -19 432 -19 q 129 76 199 -19 q 82 261 82 142 l 82 657 l 103 657 l 103 261 q 157 77 103 143 q 317 2 218 2 q 506 105 435 2 q 545 195 535 147 q 552 290 552 229 l 552 657 l 573 657 m 475 762 l 453 762 l 453 899 l 475 899 l 475 762 m 215 762 l 194 762 l 194 899 l 215 899 l 215 762 "},"¯":{"x_min":0,"x_max":681,"ha":681,"o":"m 0 1157 l 681 1157 l 681 1132 l 0 1132 l 0 1157 "},"Z":{"x_min":72,"x_max":747,"ha":819,"o":"m 747 21 l 747 0 l 72 0 l 72 33 l 707 903 l 100 903 l 100 925 l 729 925 l 729 894 l 92 21 l 747 21 "},"u":{"x_min":82,"x_max":573.265625,"ha":668,"o":"m 573 657 l 573 0 l 552 0 l 552 161 q 504 68 536 106 q 320 -19 432 -19 q 129 76 199 -19 q 82 261 82 142 l 82 657 l 103 657 l 103 261 q 157 77 103 143 q 317 2 218 2 q 506 105 435 2 q 545 195 535 147 q 552 290 552 229 l 552 657 l 573 657 "},"˜":{"x_min":170.140625,"x_max":510.421875,"ha":681,"o":"m 487 882 l 510 882 q 424 785 492 785 q 342 823 388 785 q 282 863 300 857 q 259 868 269 868 q 193 787 209 868 l 170 787 q 190 844 176 821 q 259 889 218 889 q 345 846 294 889 q 425 805 395 805 q 487 882 467 805 "},"Ó":{"x_min":45,"x_max":888,"ha":933,"o":"m 466 944 q 770 810 651 944 q 888 464 888 677 q 770 116 888 249 q 460 -18 652 -18 q 162 116 281 -18 q 45 463 45 249 q 162 810 45 679 q 466 944 283 944 m 466 923 q 178 796 290 923 q 66 463 66 668 q 178 130 66 258 q 460 3 290 3 q 754 130 642 3 q 866 464 866 258 q 754 796 866 671 q 466 923 640 923 m 433 1023 l 391 1023 l 608 1158 l 650 1158 l 433 1023 "},"k":{"x_min":95,"x_max":625.34375,"ha":626,"o":"m 625 0 l 600 0 l 288 399 l 116 255 l 116 0 l 95 0 l 95 925 l 116 925 l 116 284 l 568 657 l 600 657 l 305 412 l 625 0 "},"ˇ":{"x_min":142.890625,"x_max":538.328125,"ha":681,"o":"m 538 901 l 353 763 l 324 763 l 142 901 l 180 901 l 338 781 l 499 901 l 538 901 "},"Ù":{"x_min":122,"x_max":798,"ha":920,"o":"m 776 925 l 798 925 l 798 372 q 779 189 798 248 q 459 -18 712 -18 q 188 96 274 -18 q 128 239 142 156 q 122 372 122 282 l 122 925 l 143 925 l 143 372 q 161 201 143 261 q 459 3 221 3 q 716 114 637 3 q 769 247 756 169 q 776 372 776 292 l 776 925 m 492 1023 l 276 1158 l 317 1158 l 534 1023 l 492 1023 "},"€":{"x_min":20.234375,"x_max":719.640625,"ha":771,"o":"m 97 373 l 20 373 l 28 393 l 94 393 q 92 458 92 423 q 95 535 92 500 l 20 535 l 28 555 l 98 555 q 165 750 117 672 q 515 943 285 943 q 649 920 593 943 q 719 884 673 911 l 711 865 q 641 901 665 891 q 517 921 589 921 q 276 843 375 921 q 120 555 151 744 l 578 555 l 568 535 l 117 535 q 113 453 113 496 q 115 393 113 420 l 509 393 l 500 373 l 117 373 q 186 176 131 259 q 507 2 302 2 q 645 29 586 2 q 711 69 667 39 l 711 41 q 610 -6 653 6 q 508 -19 568 -19 q 266 59 370 -19 q 97 373 125 167 "},"¢":{"x_min":107,"x_max":663.8125,"ha":771,"o":"m 639 355 l 663 355 q 579 177 649 245 q 409 111 510 111 l 409 -29 l 388 -29 l 388 109 q 287 124 324 109 q 142 275 189 165 q 107 461 107 358 q 222 744 107 650 q 388 802 289 802 l 388 920 l 409 920 l 409 803 q 574 746 507 803 q 639 652 619 709 q 653 592 645 634 l 629 592 q 549 737 617 677 q 409 781 495 781 l 409 134 q 578 209 512 134 q 639 355 621 260 m 388 132 l 388 778 q 221 717 284 778 q 128 462 128 628 q 161 288 128 366 q 295 147 206 184 q 388 132 330 132 "},"ß":{"x_min":95,"x_max":599.265625,"ha":640,"o":"m 116 0 l 95 0 l 95 704 q 112 826 95 786 q 205 921 140 891 q 311 944 253 944 q 441 910 380 944 q 528 819 500 879 q 549 721 549 774 q 477 564 549 625 q 388 520 444 536 q 519 472 477 504 q 599 268 599 410 q 558 105 599 171 q 387 3 502 16 q 279 0 354 0 l 279 24 q 330 24 313 24 q 467 49 419 24 q 578 270 578 106 q 533 429 578 375 q 374 501 484 489 q 279 506 340 506 l 279 529 q 435 560 383 529 q 527 723 527 613 q 475 860 527 805 q 311 922 415 922 q 149 846 202 922 q 118 767 124 811 q 116 687 116 747 l 116 0 "},"é":{"x_min":41,"x_max":610,"ha":651,"o":"m 578 229 l 601 229 q 537 79 585 139 q 328 -18 461 -18 q 132 63 211 -18 q 41 322 41 158 q 114 572 41 476 q 211 649 152 621 q 333 676 267 676 q 506 613 434 676 q 601 438 581 547 q 610 331 610 393 q 610 317 610 330 l 67 317 q 117 113 67 188 q 329 3 191 3 q 530 104 462 3 q 578 229 567 160 m 587 339 q 570 473 587 420 q 478 608 541 561 q 330 654 416 654 q 165 595 233 654 q 68 339 68 513 l 587 339 m 310 763 l 268 763 l 485 899 l 526 899 l 310 763 "},"s":{"x_min":64,"x_max":562,"ha":625,"o":"m 64 225 l 87 225 q 135 74 87 128 q 320 2 199 2 q 466 37 408 2 q 520 92 500 57 q 540 170 540 128 q 476 280 540 247 q 330 327 434 301 l 278 340 q 155 384 192 362 q 88 503 88 423 q 154 633 88 585 q 308 675 212 675 q 506 597 447 675 q 541 469 541 551 l 518 469 q 478 595 518 554 q 306 653 423 653 q 169 617 220 653 q 110 503 110 576 q 166 402 110 433 q 282 362 207 379 l 335 350 q 488 297 440 324 q 562 170 562 256 q 519 55 562 105 q 321 -19 456 -19 q 106 73 174 -19 q 64 225 64 130 "},"B":{"x_min":122,"x_max":795.265625,"ha":841,"o":"m 122 0 l 122 925 l 462 925 q 668 874 593 925 q 763 694 763 811 q 691 532 763 595 q 625 493 661 506 q 561 477 604 485 q 656 458 622 471 q 762 372 728 428 q 795 248 795 316 q 751 110 795 172 q 611 16 698 37 q 462 0 537 0 l 122 0 m 143 490 l 481 490 q 674 545 608 490 q 741 694 741 601 q 703 811 741 760 q 462 903 635 903 l 143 903 l 143 490 m 143 21 l 462 21 q 688 75 619 21 q 774 248 774 143 q 731 376 774 321 q 480 468 660 468 l 143 468 l 143 21 "},"…":{"x_min":91,"x_max":517.734375,"ha":608,"o":"m 91 125 l 112 125 l 112 0 l 91 0 l 91 125 m 293 125 l 315 125 l 315 0 l 293 0 l 293 125 m 496 125 l 517 125 l 517 0 l 496 0 l 496 125 "},"?":{"x_min":55,"x_max":581.265625,"ha":636,"o":"m 333 236 l 311 236 q 311 253 311 247 q 331 359 311 316 q 374 422 344 390 q 432 479 388 439 q 520 576 490 534 q 560 692 560 631 q 490 843 560 785 q 320 898 423 898 q 110 784 178 898 q 78 619 78 730 l 55 619 q 63 717 55 681 q 169 876 85 819 q 323 920 235 920 q 506 858 433 920 q 581 694 581 796 q 538 563 581 624 q 442 460 514 528 q 344 337 358 380 q 333 242 333 304 q 333 236 333 242 m 333 125 l 333 0 l 311 0 l 311 125 l 333 125 "},"H":{"x_min":122,"x_max":806,"ha":929,"o":"m 806 925 l 806 0 l 784 0 l 784 469 l 143 469 l 143 0 l 122 0 l 122 925 l 143 925 l 143 490 l 784 490 l 784 925 l 806 925 "},"î":{"x_min":-91.75,"x_max":303.671875,"ha":212,"o":"m 116 657 l 116 0 l 95 0 l 95 657 l 116 657 m 303 763 l 264 763 l 103 883 l -53 763 l -91 763 l 89 901 l 118 901 l 303 763 "},"c":{"x_min":41,"x_max":600.625,"ha":642,"o":"m 579 225 l 600 225 q 536 69 584 126 q 329 -19 461 -19 q 119 79 196 -19 q 41 329 41 179 q 129 587 41 488 q 335 675 208 675 q 548 583 473 675 q 588 465 588 534 l 566 465 q 517 585 566 536 q 337 653 449 653 q 142 571 215 653 q 62 332 62 481 q 134 94 62 191 q 327 2 203 2 q 526 91 458 2 q 579 225 563 139 "},"¶":{"x_min":68.734375,"x_max":590.265625,"ha":708,"o":"m 436 -111 l 415 -111 l 415 427 l 358 427 q 220 447 269 427 q 102 546 141 478 q 68 676 68 604 q 147 866 68 794 q 342 925 211 925 l 590 925 l 590 -111 l 569 -111 l 569 903 l 436 903 l 436 -111 "},"•":{"x_min":266,"x_max":644,"ha":907,"o":"m 457 662 q 588 605 532 662 q 644 469 644 549 q 588 333 644 389 q 455 277 532 277 q 321 333 377 277 q 266 468 266 389 q 321 605 266 550 q 457 662 378 662 "},"¥":{"x_min":74.84375,"x_max":695.15625,"ha":771,"o":"m 379 364 l 134 364 l 134 386 l 379 386 l 379 390 l 288 549 l 134 549 l 134 571 l 276 571 l 74 925 l 102 925 l 299 571 l 476 571 l 667 925 l 695 925 l 499 571 l 636 571 l 636 549 l 487 549 l 400 390 l 400 386 l 636 386 l 636 364 l 400 364 l 400 0 l 379 0 l 379 364 m 311 549 l 389 410 l 464 549 l 311 549 "},"(":{"x_min":236,"x_max":417.4375,"ha":472,"o":"m 417 -162 l 390 -162 q 289 60 323 -40 q 236 401 236 226 q 290 741 236 577 q 376 939 319 826 l 399 939 q 311 736 337 812 q 257 399 257 576 q 311 64 257 228 q 417 -162 347 -43 "},"U":{"x_min":122,"x_max":798,"ha":920,"o":"m 776 925 l 798 925 l 798 372 q 779 189 798 248 q 459 -18 712 -18 q 188 96 274 -18 q 128 239 142 156 q 122 372 122 282 l 122 925 l 143 925 l 143 372 q 161 201 143 261 q 459 3 221 3 q 716 114 637 3 q 769 247 756 169 q 776 372 776 292 l 776 925 "},"◊":{"x_min":100.359375,"x_max":807.5,"ha":907,"o":"m 453 961 l 807 462 l 453 -35 l 100 462 l 453 961 m 453 838 l 185 462 l 453 86 l 721 462 l 453 838 "},"Ñ":{"x_min":122,"x_max":806.265625,"ha":929,"o":"m 122 0 l 122 925 l 153 925 l 785 28 l 785 925 l 806 925 l 806 0 l 776 0 l 143 899 l 143 0 l 122 0 m 634 1142 q 548 1044 616 1044 q 466 1082 512 1044 q 406 1122 424 1116 q 383 1127 393 1127 q 317 1046 333 1127 l 294 1046 q 314 1103 300 1080 q 383 1148 342 1148 q 469 1105 418 1148 q 549 1064 519 1064 q 610 1142 591 1064 l 634 1142 "},"F":{"x_min":122,"x_max":683.578125,"ha":780,"o":"m 143 467 l 143 0 l 122 0 l 122 925 l 683 925 l 683 903 l 143 903 l 143 489 l 623 489 l 623 467 l 143 467 "},"­":{"x_min":0,"x_max":282,"ha":282,"o":"m 282 340 l 282 319 l 0 319 l 0 340 l 282 340 "},":":{"x_min":91,"x_max":112.265625,"ha":203,"o":"m 91 125 l 112 125 l 112 0 l 91 0 l 91 125 m 91 657 l 112 657 l 112 532 l 91 532 l 91 657 "},"Û":{"x_min":122,"x_max":798,"ha":920,"o":"m 776 925 l 798 925 l 798 372 q 779 189 798 248 q 459 -18 712 -18 q 188 96 274 -18 q 128 239 142 156 q 122 372 122 282 l 122 925 l 143 925 l 143 372 q 161 201 143 261 q 459 3 221 3 q 716 114 637 3 q 769 247 756 169 q 776 372 776 292 l 776 925 m 657 1022 l 618 1022 l 457 1141 l 300 1022 l 262 1022 l 443 1159 l 472 1159 l 657 1022 "},"*":{"x_min":82.8125,"x_max":414.1875,"ha":497,"o":"m 248 734 l 151 609 l 133 623 l 227 746 l 82 799 l 90 821 l 237 769 l 237 925 l 260 925 l 260 769 l 406 821 l 414 799 l 269 746 l 363 623 l 345 609 l 248 734 "},"†":{"x_min":54,"x_max":674,"ha":729,"o":"m 375 925 l 375 600 l 674 600 l 674 579 l 375 579 l 375 -149 l 353 -149 l 353 579 l 54 579 l 54 600 l 353 600 l 353 925 l 375 925 "},"°":{"x_min":45,"x_max":422,"ha":467,"o":"m 235 931 q 366 878 314 931 q 422 740 422 824 q 366 601 422 655 q 233 549 314 549 q 100 601 152 549 q 45 739 45 656 q 100 878 45 825 q 235 931 153 931 m 235 909 q 114 863 161 909 q 66 739 66 815 q 114 616 66 664 q 233 570 160 570 q 352 616 306 570 q 400 740 400 664 q 352 863 400 817 q 235 909 304 909 "},"V":{"x_min":9.296875,"x_max":751,"ha":760,"o":"m 725 925 l 751 925 l 396 0 l 365 0 l 9 925 l 35 925 l 381 24 l 725 925 "},"å":{"x_min":41,"x_max":629,"ha":648,"o":"m 629 21 l 629 0 q 547 10 565 0 q 523 49 525 23 q 521 91 521 62 l 521 160 q 457 60 495 99 q 264 -18 379 -18 q 105 31 170 -18 q 41 170 41 80 q 169 347 41 297 q 402 368 222 368 q 488 384 468 368 q 517 411 511 395 q 521 448 521 419 l 521 474 q 504 568 521 535 q 321 653 462 653 q 144 584 197 653 q 102 460 112 540 l 79 460 q 136 609 88 559 q 318 675 198 675 q 489 622 428 675 q 535 548 524 591 q 543 468 543 519 l 543 101 q 549 40 543 49 q 604 21 560 21 l 629 21 m 521 390 q 468 357 503 367 q 317 344 433 344 q 128 295 192 344 q 76 232 95 273 q 62 165 62 200 q 121 44 62 88 q 264 3 177 3 q 462 99 386 3 q 521 270 521 173 l 521 390 m 324 937 q 392 909 365 937 q 421 838 421 882 q 392 767 421 794 q 323 740 365 740 q 254 767 281 740 q 225 838 225 794 q 254 909 225 882 q 324 937 282 937 m 324 915 q 268 894 290 915 q 247 838 247 872 q 268 782 247 804 q 323 761 290 761 q 378 782 356 761 q 400 838 400 804 q 378 894 400 873 q 324 915 356 915 "}," ":{"x_min":0,"x_max":0,"ha":340},"0":{"x_min":60,"x_max":710,"ha":771,"o":"m 384 902 q 566 834 484 902 q 710 424 710 717 q 610 88 710 210 q 384 -19 522 -19 q 191 53 272 -19 q 82 245 116 121 q 60 435 60 328 q 136 755 60 630 q 237 859 176 821 q 384 902 305 902 m 384 880 q 206 807 283 880 q 81 435 81 690 q 152 135 81 253 q 251 37 190 71 q 384 2 310 2 q 594 102 512 2 q 688 424 688 218 q 607 758 688 639 q 508 848 569 815 q 384 880 449 880 "},"”":{"x_min":54,"x_max":233.265625,"ha":324,"o":"m 212 925 l 233 925 l 233 809 q 224 715 233 752 q 181 643 214 680 l 181 681 q 206 733 200 708 q 212 809 212 761 l 212 925 m 85 925 l 106 925 l 106 809 q 97 715 106 752 q 54 643 87 680 l 54 681 q 79 733 73 708 q 85 809 85 761 l 85 925 "},"¾":{"x_min":66,"x_max":1092,"ha":1156,"o":"m 66 539 l 91 539 q 99 463 91 488 q 165 384 115 411 q 252 364 203 364 q 365 396 319 364 q 419 507 419 436 q 370 604 419 572 q 264 627 335 627 q 227 627 251 627 l 227 653 q 313 658 284 653 q 383 696 358 666 q 405 758 405 723 q 364 843 405 810 q 261 873 327 873 q 115 795 154 873 q 101 712 101 765 l 78 712 q 96 805 78 773 q 172 876 120 852 q 261 894 211 894 q 377 859 331 894 q 427 758 427 820 q 369 657 427 692 q 331 640 353 646 q 389 615 365 633 q 441 505 441 575 q 379 379 441 425 q 253 342 327 342 q 115 392 167 342 q 66 539 66 439 m 286 0 l 868 925 l 894 925 l 314 0 l 286 0 m 994 0 l 973 0 l 973 139 l 711 139 l 711 163 l 970 531 l 994 531 l 994 160 l 1092 160 l 1092 139 l 994 139 l 994 0 m 973 160 l 973 495 l 737 160 l 973 160 "},"@":{"x_min":64,"x_max":897.265625,"ha":960,"o":"m 816 76 l 824 50 q 516 -18 681 -18 q 189 118 312 -18 q 97 272 130 183 q 64 461 64 363 q 128 716 64 598 q 301 890 190 829 q 501 941 396 941 q 702 888 609 941 q 854 723 802 831 q 897 527 897 634 q 814 258 897 366 q 711 199 768 199 q 657 229 678 199 q 639 301 639 258 q 642 345 639 315 q 412 197 570 197 q 277 246 326 197 q 228 382 228 297 q 250 514 228 447 q 355 664 283 612 q 498 706 415 706 q 648 640 596 706 q 679 563 666 617 l 701 691 l 723 691 l 667 372 q 660 305 660 324 q 661 276 660 289 q 683 236 666 252 q 719 221 700 221 q 777 250 745 221 q 848 366 820 288 q 876 528 876 442 q 764 816 876 707 q 501 920 658 920 q 210 791 329 920 q 85 459 85 657 q 198 137 85 270 q 515 3 313 3 q 722 38 620 3 q 816 76 759 50 m 495 685 q 302 579 368 685 q 260 470 275 536 q 250 386 250 425 q 294 265 250 311 q 419 218 339 218 q 618 327 548 218 q 658 435 645 369 q 665 512 665 476 q 608 647 665 598 q 495 685 564 685 "},"ö":{"x_min":41,"x_max":626,"ha":667,"o":"m 334 676 q 504 620 431 676 q 626 314 626 527 q 554 81 626 170 q 333 -18 473 -18 q 111 91 190 -18 q 41 330 41 189 q 127 587 41 491 q 334 676 207 676 m 334 654 q 143 572 217 654 q 62 330 62 484 q 128 104 62 196 q 332 3 201 3 q 538 95 463 3 q 604 314 604 177 q 542 549 604 459 q 334 654 470 654 m 474 762 l 452 762 l 452 899 l 474 899 l 474 762 m 214 762 l 193 762 l 193 899 l 214 899 l 214 762 "},"i":{"x_min":95,"x_max":116.265625,"ha":212,"o":"m 116 657 l 116 0 l 95 0 l 95 657 l 116 657 m 116 792 l 95 792 l 95 925 l 116 925 l 116 792 "},"Õ":{"x_min":45,"x_max":888,"ha":933,"o":"m 466 944 q 770 810 651 944 q 888 464 888 677 q 770 116 888 249 q 460 -18 652 -18 q 162 116 281 -18 q 45 463 45 249 q 162 810 45 679 q 466 944 283 944 m 466 923 q 178 796 290 923 q 66 463 66 668 q 178 130 66 258 q 460 3 290 3 q 754 130 642 3 q 866 464 866 258 q 754 796 866 671 q 466 923 640 923 m 636 1143 q 550 1044 618 1044 q 468 1082 515 1044 q 408 1122 426 1116 q 386 1127 396 1127 q 319 1047 335 1127 l 296 1047 q 316 1103 302 1080 q 386 1148 344 1148 q 471 1105 420 1148 q 551 1064 521 1064 q 613 1143 594 1064 l 636 1143 "},"þ":{"x_min":95,"x_max":660.265625,"ha":701,"o":"m 95 925 l 116 925 l 116 467 q 178 590 142 549 q 380 675 251 675 q 571 600 499 675 q 660 336 660 508 q 577 66 660 158 q 487 4 541 26 q 376 -18 435 -18 q 182 60 259 -18 q 116 178 142 101 l 116 -222 l 95 -222 l 95 925 m 380 653 q 191 569 260 653 q 116 322 116 479 q 194 84 116 172 q 375 3 267 3 q 514 43 451 3 q 609 166 577 84 q 639 331 639 242 q 553 585 639 498 q 380 653 487 653 "},"]":{"x_min":17.859375,"x_max":211.265625,"ha":448,"o":"m 211 925 l 211 -147 l 17 -147 l 17 -126 l 190 -126 l 190 903 l 17 903 l 17 925 l 211 925 "},"m":{"x_min":95,"x_max":948.265625,"ha":1030,"o":"m 95 657 l 116 657 l 116 500 q 174 611 140 574 q 329 675 234 675 q 486 606 429 675 q 525 515 513 574 q 589 620 552 586 q 740 675 650 675 q 904 605 844 675 q 942 532 932 571 q 948 444 948 506 l 948 0 l 927 0 l 927 444 q 912 550 927 513 q 842 629 893 601 q 745 654 798 654 q 641 628 691 654 q 555 538 588 602 q 532 426 532 492 l 532 0 l 511 0 l 511 426 q 499 538 511 502 q 425 630 477 601 q 330 653 382 653 q 190 596 247 653 q 116 380 116 523 l 116 0 l 95 0 l 95 657 "},"8":{"x_min":76,"x_max":694,"ha":771,"o":"m 460 481 q 605 435 557 470 q 670 353 646 405 q 694 239 694 300 q 600 46 694 113 q 380 -18 510 -18 q 165 53 249 -18 q 76 244 76 128 q 124 389 76 325 q 240 468 166 446 q 320 481 267 476 q 191 520 231 495 q 127 590 150 545 q 104 684 104 633 q 149 813 104 757 q 379 902 219 902 q 592 839 515 902 q 666 679 666 778 q 578 520 666 576 q 460 481 536 493 m 382 471 q 182 419 252 471 q 118 340 141 389 q 97 245 97 296 q 178 70 97 137 q 384 3 258 3 q 590 65 505 3 q 672 236 672 125 q 596 416 672 356 q 382 471 526 471 m 381 880 q 201 833 270 880 q 146 768 166 809 q 126 682 126 728 q 161 573 126 620 q 390 495 221 495 q 567 535 502 495 q 645 677 645 585 q 579 820 645 767 q 381 880 505 880 "},"R":{"x_min":124,"x_max":777.328125,"ha":850,"o":"m 124 0 l 124 925 l 455 925 q 598 912 546 925 q 736 816 688 890 q 774 679 774 758 q 693 502 774 567 q 618 461 659 474 q 556 448 598 454 q 670 415 631 437 q 757 275 744 374 q 763 88 763 228 q 777 0 763 32 l 754 0 q 741 89 741 31 q 725 303 741 259 q 662 396 705 368 q 473 437 602 437 l 145 437 l 145 0 l 124 0 m 145 458 l 480 458 q 681 517 611 458 q 752 680 752 577 q 652 867 752 805 q 546 899 612 891 q 438 903 508 903 l 145 903 l 145 458 "},"á":{"x_min":41,"x_max":629,"ha":648,"o":"m 629 21 l 629 0 q 547 10 565 0 q 523 49 525 23 q 521 91 521 62 l 521 160 q 457 60 495 99 q 264 -18 379 -18 q 105 31 170 -18 q 41 170 41 80 q 169 347 41 297 q 402 368 222 368 q 488 384 467 368 q 517 411 511 395 q 521 448 521 419 l 521 474 q 504 568 521 535 q 321 653 462 653 q 144 584 197 653 q 102 460 112 540 l 79 460 q 136 609 88 559 q 318 675 198 675 q 489 622 428 675 q 535 548 524 591 q 543 468 543 519 l 543 101 q 549 40 543 49 q 604 21 560 21 l 629 21 m 521 390 q 468 357 503 367 q 317 344 433 344 q 128 295 192 344 q 76 232 95 273 q 62 165 62 200 q 121 44 62 88 q 264 3 177 3 q 461 99 386 3 q 521 270 521 173 l 521 390 m 308 763 l 266 763 l 483 900 l 524 900 l 308 763 "},"×":{"x_min":149.53125,"x_max":622.078125,"ha":772,"o":"m 386 452 l 164 227 l 149 242 l 370 468 l 149 693 l 164 708 l 386 483 l 607 708 l 622 693 l 400 468 l 622 242 l 607 227 l 386 452 "},"o":{"x_min":41,"x_max":626,"ha":667,"o":"m 334 676 q 504 620 431 676 q 626 314 626 527 q 554 81 626 170 q 333 -18 473 -18 q 111 91 190 -18 q 41 330 41 189 q 127 587 41 491 q 334 676 207 676 m 334 654 q 143 572 217 654 q 62 330 62 484 q 128 104 62 196 q 332 3 201 3 q 538 95 463 3 q 604 314 604 177 q 542 549 604 459 q 334 654 470 654 "},"5":{"x_min":86,"x_max":685.265625,"ha":772,"o":"m 654 883 l 654 862 l 225 862 l 142 481 q 385 603 230 603 q 598 520 517 603 q 662 416 639 479 q 685 293 685 356 q 602 79 685 167 q 387 -11 517 -11 q 212 37 291 -11 q 86 291 86 114 l 109 291 q 109 283 109 286 q 117 213 109 253 q 225 55 138 108 q 388 10 299 10 q 588 96 509 10 q 664 294 664 176 q 626 447 664 376 q 514 554 587 520 q 385 582 456 582 q 213 528 286 582 q 142 447 172 497 l 115 447 l 206 883 l 654 883 "},"õ":{"x_min":41,"x_max":626,"ha":667,"o":"m 334 676 q 504 620 431 676 q 626 314 626 527 q 554 81 626 170 q 333 -18 473 -18 q 111 91 190 -18 q 41 330 41 189 q 127 587 41 491 q 334 676 207 676 m 334 654 q 143 572 217 654 q 62 330 62 484 q 128 104 62 196 q 332 3 201 3 q 538 95 463 3 q 604 314 604 177 q 542 549 604 459 q 334 654 470 654 m 480 883 l 503 883 q 417 786 485 786 q 335 824 382 786 q 275 863 293 858 q 253 868 263 868 q 186 788 202 868 l 163 788 q 183 844 169 821 q 253 889 211 889 q 338 846 287 889 q 418 806 388 806 q 480 883 461 806 "},"7":{"x_min":108,"x_max":664,"ha":772,"o":"m 280 0 l 258 0 q 357 454 258 231 q 648 862 467 699 l 108 862 l 108 883 l 664 883 l 664 851 q 379 445 482 683 q 287 124 313 294 q 280 0 280 67 "},"K":{"x_min":122,"x_max":837.109375,"ha":874,"o":"m 143 331 l 143 0 l 122 0 l 122 925 l 143 925 l 143 358 l 777 925 l 809 925 l 371 534 l 837 0 l 809 0 l 355 520 l 143 331 "},",":{"x_min":54,"x_max":110,"ha":198,"o":"m 86 125 l 110 125 l 110 10 q 54 -154 110 -79 l 54 -116 q 86 3 86 -76 l 86 125 "},"d":{"x_min":41,"x_max":606.265625,"ha":702,"o":"m 606 0 l 585 0 l 585 189 q 523 66 558 107 q 320 -18 449 -18 q 130 56 201 -18 q 41 320 41 148 q 123 590 41 498 q 324 675 199 675 q 518 596 442 675 q 585 478 558 555 l 585 925 l 606 925 l 606 0 m 325 653 q 140 574 210 653 q 83 467 102 530 q 62 325 62 396 q 147 72 62 158 q 320 3 213 3 q 509 87 441 3 q 585 334 585 179 q 507 572 585 486 q 325 653 432 653 "},"¨":{"x_min":200,"x_max":480.265625,"ha":680,"o":"m 480 762 l 459 762 l 459 899 l 480 899 l 480 762 m 221 762 l 200 762 l 200 899 l 221 899 l 221 762 "},"Ô":{"x_min":45,"x_max":888,"ha":933,"o":"m 466 944 q 770 810 651 944 q 888 464 888 677 q 770 116 888 249 q 460 -18 652 -18 q 162 116 281 -18 q 45 463 45 249 q 162 810 45 679 q 466 944 283 944 m 466 923 q 178 796 290 923 q 66 463 66 668 q 178 130 66 258 q 460 3 290 3 q 754 130 642 3 q 866 464 866 258 q 754 796 866 671 q 466 923 640 923 m 663 1022 l 624 1022 l 463 1141 l 306 1022 l 268 1022 l 449 1160 l 479 1160 l 663 1022 "},"E":{"x_min":122,"x_max":728.109375,"ha":828,"o":"m 122 0 l 122 925 l 728 925 l 728 903 l 143 903 l 143 490 l 691 490 l 691 469 l 143 469 l 143 21 l 728 21 l 728 0 l 122 0 "},"Y":{"x_min":9.15625,"x_max":774.796875,"ha":784,"o":"m 407 0 l 386 0 l 386 390 l 9 925 l 36 925 l 396 410 l 747 925 l 774 925 l 407 390 l 407 0 "},"\"":{"x_min":120,"x_max":285,"ha":406,"o":"m 120 925 l 146 925 l 146 559 l 120 559 l 120 925 m 260 925 l 285 925 l 285 559 l 260 559 l 260 925 "},"‹":{"x_min":91,"x_max":215,"ha":269,"o":"m 215 519 l 215 476 l 111 333 l 215 191 l 215 149 l 91 321 l 91 344 l 215 519 "},"˙":{"x_min":330,"x_max":351.265625,"ha":681,"o":"m 351 762 l 330 762 l 330 899 l 351 899 l 351 762 "},"ê":{"x_min":41,"x_max":610,"ha":651,"o":"m 578 229 l 601 229 q 537 79 585 139 q 328 -18 461 -18 q 132 63 211 -18 q 41 322 41 158 q 114 572 41 476 q 211 649 152 621 q 333 676 267 676 q 506 613 434 676 q 601 438 581 547 q 610 331 610 393 q 610 317 610 330 l 67 317 q 117 113 67 188 q 329 3 191 3 q 530 104 462 3 q 578 229 567 160 m 587 339 q 570 473 587 420 q 478 608 541 561 q 330 654 416 654 q 165 595 233 654 q 68 339 68 513 l 587 339 m 522 763 l 483 763 l 322 883 l 165 763 l 127 763 l 308 901 l 337 901 l 522 763 "},"Ï":{"x_min":102,"x_max":201,"ha":303,"o":"m 162 925 l 162 0 l 140 0 l 140 925 l 162 925 m 201 1021 l 179 1021 l 179 1158 l 201 1158 l 201 1021 m 123 1021 l 102 1021 l 102 1158 l 123 1158 l 123 1021 "},"„":{"x_min":54,"x_max":237,"ha":329,"o":"m 87 125 l 107 125 l 107 -5 q 54 -159 107 -107 l 54 -123 q 87 -5 87 -79 l 87 125 m 214 125 l 237 125 l 237 0 q 222 -96 237 -57 q 205 -135 215 -117 q 182 -162 200 -145 l 182 -122 q 214 -3 214 -81 l 214 125 "},"Â":{"x_min":9.296875,"x_max":768.28125,"ha":777,"o":"m 624 301 l 155 301 l 34 0 l 9 0 l 380 925 l 404 925 l 768 0 l 743 0 l 624 301 m 614 323 l 392 893 l 165 323 l 614 323 m 586 1021 l 547 1021 l 386 1141 l 229 1021 l 191 1021 l 372 1159 l 402 1159 l 586 1021 "},"Í":{"x_min":76.546875,"x_max":335.078125,"ha":303,"o":"m 162 925 l 162 0 l 141 0 l 141 925 l 162 925 m 119 1023 l 76 1023 l 293 1158 l 335 1158 l 119 1023 "},"´":{"x_min":283.78125,"x_max":542.3125,"ha":681,"o":"m 326 763 l 283 763 l 501 899 l 542 899 l 326 763 "},"ì":{"x_min":-96.40625,"x_max":162.109375,"ha":212,"o":"m 116 657 l 116 0 l 95 0 l 95 657 l 116 657 m 120 763 l -96 899 l -55 899 l 162 763 l 120 763 "},"±":{"x_min":135,"x_max":637,"ha":771,"o":"m 397 458 l 397 213 l 375 213 l 375 458 l 135 458 l 135 479 l 375 479 l 375 725 l 397 725 l 397 479 l 637 479 l 637 458 l 397 458 m 135 108 l 637 108 l 637 87 l 135 87 l 135 108 "},"Ú":{"x_min":122,"x_max":798,"ha":920,"o":"m 776 925 l 798 925 l 798 372 q 779 189 798 248 q 459 -18 712 -18 q 188 96 274 -18 q 128 239 142 156 q 122 372 122 282 l 122 925 l 143 925 l 143 372 q 161 201 143 261 q 459 3 221 3 q 716 114 637 3 q 769 247 756 169 q 776 372 776 292 l 776 925 m 427 1023 l 385 1023 l 602 1158 l 643 1158 l 427 1023 "},"|":{"x_min":327,"x_max":354,"ha":681,"o":"m 327 925 l 354 925 l 354 -232 l 327 -232 l 327 925 "},"§":{"x_min":54,"x_max":568,"ha":619,"o":"m 544 758 l 522 758 q 497 868 522 834 q 313 923 456 923 q 107 780 107 923 q 160 664 107 707 q 260 622 182 647 l 398 578 q 527 509 488 551 q 568 405 568 465 q 514 276 568 328 q 402 209 485 250 q 502 161 470 188 q 562 36 562 113 q 480 -122 562 -63 q 316 -167 418 -167 q 131 -122 204 -167 q 54 22 54 -74 q 54 67 54 39 l 73 67 q 73 34 73 47 q 114 -77 73 -30 q 321 -147 177 -147 q 472 -103 415 -147 q 542 35 542 -49 q 486 148 542 108 q 361 199 451 172 l 232 236 q 67 418 67 284 q 131 557 67 501 q 232 610 163 585 q 151 648 178 627 q 87 777 87 697 q 151 901 87 859 q 315 943 212 943 q 521 868 475 943 q 544 758 544 834 m 377 216 q 397 227 392 224 q 500 290 478 268 q 548 402 548 337 q 491 513 548 472 q 401 555 459 537 l 258 601 q 157 554 194 581 q 87 421 87 501 q 134 306 87 354 q 189 271 158 281 q 249 252 211 262 l 377 216 "},"Ý":{"x_min":9.15625,"x_max":774.796875,"ha":784,"o":"m 407 0 l 386 0 l 386 390 l 9 925 l 36 925 l 396 410 l 747 925 l 774 925 l 407 390 l 407 0 m 359 1023 l 316 1023 l 534 1158 l 575 1158 l 359 1023 "},"b":{"x_min":95,"x_max":660.265625,"ha":701,"o":"m 95 0 l 95 925 l 116 925 l 116 478 q 182 596 142 555 q 376 675 259 675 q 577 590 501 675 q 660 320 660 498 q 571 55 660 148 q 380 -19 499 -19 q 178 65 251 -19 q 116 189 142 107 l 116 0 l 95 0 m 375 653 q 194 571 267 653 q 116 334 116 485 q 191 86 116 178 q 381 2 260 2 q 553 71 487 2 q 639 315 639 157 q 560 574 639 483 q 478 632 528 611 q 375 653 429 653 "},"q":{"x_min":41,"x_max":606.265625,"ha":702,"o":"m 606 657 l 606 -222 l 585 -222 l 585 178 q 518 60 558 101 q 324 -18 442 -18 q 174 24 242 -18 q 70 155 104 68 q 41 336 41 234 q 130 601 41 508 q 320 676 201 676 q 523 591 449 676 q 585 467 558 549 l 585 657 l 606 657 m 319 654 q 147 585 214 654 q 62 341 62 499 q 140 82 62 173 q 222 24 172 46 q 325 3 270 3 q 507 85 434 3 q 585 322 585 172 q 509 570 585 479 q 319 654 440 654 "},"Ö":{"x_min":45,"x_max":888,"ha":933,"o":"m 466 944 q 770 810 651 944 q 888 464 888 677 q 770 116 888 249 q 460 -18 652 -18 q 162 116 281 -18 q 45 463 45 249 q 162 810 45 679 q 466 944 283 944 m 466 923 q 178 796 290 923 q 66 463 66 668 q 178 130 66 258 q 460 3 290 3 q 754 130 642 3 q 866 464 866 258 q 754 796 866 671 q 466 923 640 923 m 606 1022 l 585 1022 l 585 1159 l 606 1159 l 606 1022 m 347 1022 l 326 1022 l 326 1159 l 347 1159 l 347 1022 "},"z":{"x_min":59,"x_max":571,"ha":616,"o":"m 571 21 l 571 0 l 59 0 l 59 31 l 522 635 l 93 635 l 93 656 l 548 656 l 548 628 l 81 21 l 571 21 "},"ã":{"x_min":41,"x_max":629,"ha":648,"o":"m 629 21 l 629 0 q 547 10 565 0 q 523 49 525 23 q 521 91 521 62 l 521 160 q 457 60 495 99 q 264 -18 379 -18 q 105 31 170 -18 q 41 170 41 80 q 169 347 41 297 q 402 368 222 368 q 488 384 467 368 q 517 411 511 395 q 521 448 521 419 l 521 474 q 504 568 521 535 q 321 653 462 653 q 144 584 197 653 q 102 460 112 540 l 79 460 q 136 609 88 559 q 318 675 198 675 q 489 622 428 675 q 535 548 524 591 q 543 468 543 519 l 543 101 q 549 40 543 49 q 604 21 560 21 l 629 21 m 521 390 q 468 357 503 367 q 317 344 433 344 q 128 295 192 344 q 76 232 95 273 q 62 165 62 200 q 121 44 62 88 q 264 3 177 3 q 461 99 386 3 q 521 270 521 173 l 521 390 m 469 883 l 493 883 q 407 786 475 786 q 325 824 371 786 q 265 863 283 858 q 242 868 252 868 q 176 788 192 868 l 153 788 q 173 844 159 821 q 242 889 201 889 q 328 846 277 889 q 408 806 378 806 q 469 883 450 806 "},"æ":{"x_min":41,"x_max":1090,"ha":1131,"o":"m 1059 229 l 1082 229 q 1018 79 1066 139 q 808 -18 941 -18 q 580 103 663 -18 q 533 209 556 138 q 484 91 516 134 q 263 -18 404 -18 q 105 31 170 -18 q 41 171 41 81 q 169 347 41 298 q 402 368 223 368 q 511 393 491 368 q 521 459 521 405 q 504 568 521 535 q 321 653 461 653 q 144 584 197 653 q 102 460 112 540 l 79 460 q 136 609 88 558 q 319 675 198 675 q 490 622 429 675 q 536 548 525 591 q 543 468 543 521 q 595 572 564 533 q 813 676 676 676 q 986 612 914 676 q 1082 438 1062 547 q 1090 331 1090 393 q 1090 317 1090 330 l 546 317 q 598 113 546 188 q 809 3 672 3 q 1010 104 943 3 q 1059 229 1048 161 m 1068 339 q 1051 473 1068 420 q 958 608 1022 561 q 809 654 896 654 q 643 595 712 654 q 547 339 547 513 l 1068 339 m 521 389 q 468 357 503 367 q 317 340 432 340 q 62 170 62 340 q 121 46 62 91 q 264 3 177 3 q 461 99 386 3 q 521 270 521 173 l 521 389 "},"®":{"x_min":64,"x_max":1002,"ha":1065,"o":"m 344 203 l 344 731 l 534 731 q 667 699 627 731 q 718 588 718 659 q 671 485 718 523 q 618 459 649 468 q 689 414 666 450 q 710 330 710 385 q 710 258 710 316 q 721 203 710 226 l 698 203 q 690 258 690 224 q 683 376 690 353 q 624 437 669 422 q 545 448 592 448 l 366 448 l 366 203 l 344 203 m 366 469 l 548 469 q 658 501 621 469 q 696 589 696 533 q 642 689 696 656 q 525 709 611 709 l 366 709 l 366 469 m 539 942 q 777 870 665 942 q 950 680 890 800 q 1002 462 1002 577 q 932 212 1002 327 q 746 35 864 97 q 533 -17 645 -17 q 289 53 402 -17 q 115 244 176 123 q 64 461 64 348 q 133 713 64 597 q 321 889 200 827 q 539 942 420 942 m 539 920 q 217 786 349 920 q 119 638 154 723 q 85 461 85 553 q 151 222 85 334 q 330 54 218 113 q 533 4 426 4 q 767 72 659 4 q 932 254 875 140 q 980 462 980 352 q 914 702 980 591 q 736 870 850 810 q 539 920 641 920 "},"É":{"x_min":122,"x_max":728.109375,"ha":828,"o":"m 122 0 l 122 925 l 728 925 l 728 903 l 143 903 l 143 490 l 691 490 l 691 469 l 143 469 l 143 21 l 728 21 l 728 0 l 122 0 m 381 1023 l 338 1023 l 555 1158 l 597 1158 l 381 1023 "},"~":{"x_min":130.265625,"x_max":776.921875,"ha":907,"o":"m 152 836 l 130 851 q 180 924 156 896 q 299 980 231 980 q 461 919 353 980 q 561 871 531 880 q 606 864 586 864 q 698 904 659 864 q 754 982 725 932 l 776 968 q 726 895 751 923 q 608 839 675 839 q 531 856 575 839 q 420 913 508 865 q 299 956 344 956 q 208 915 248 956 q 152 836 181 887 "},"³":{"x_min":66,"x_max":441,"ha":508,"o":"m 66 539 l 91 539 q 99 462 91 488 q 165 384 115 411 q 252 363 203 363 q 365 396 319 363 q 419 507 419 436 q 370 604 419 572 q 264 627 335 627 q 227 627 251 627 l 227 653 q 313 658 284 653 q 383 696 358 666 q 405 758 405 723 q 364 842 405 809 q 261 872 327 872 q 115 795 154 872 q 101 712 101 765 l 78 712 q 96 805 78 772 q 172 875 120 852 q 261 894 211 894 q 377 858 331 894 q 427 758 427 820 q 369 656 427 692 q 331 640 353 646 q 389 615 365 633 q 441 505 441 575 q 379 379 441 425 q 253 342 327 342 q 115 392 167 342 q 66 539 66 439 "},"¡":{"x_min":100,"x_max":121.265625,"ha":221,"o":"m 121 518 l 121 -167 l 100 -167 l 100 518 l 121 518 m 121 633 l 100 633 l 100 758 l 121 758 l 121 633 "},"[":{"x_min":236,"x_max":429.390625,"ha":448,"o":"m 429 925 l 429 903 l 257 903 l 257 -126 l 429 -126 l 429 -147 l 236 -147 l 236 925 l 429 925 "},"L":{"x_min":122,"x_max":681.59375,"ha":718,"o":"m 122 0 l 122 925 l 143 925 l 143 21 l 681 21 l 681 0 l 122 0 "}," ":{"x_min":0,"x_max":0,"ha":340},"%":{"x_min":30,"x_max":846.265625,"ha":874,"o":"m 747 938 l 150 -38 l 121 -38 l 717 938 l 747 938 m 652 423 q 805 352 751 423 q 846 208 846 297 q 794 46 846 106 q 651 -14 741 -14 q 496 57 549 -14 q 455 204 455 112 q 507 364 455 307 q 652 423 560 423 m 652 402 q 512 339 558 402 q 476 202 476 290 q 520 60 476 109 q 650 7 568 7 q 786 72 739 7 q 825 209 825 124 q 788 338 825 288 q 652 402 742 402 m 228 915 q 381 841 326 915 q 421 696 421 787 q 369 539 421 602 q 224 476 316 476 q 69 550 121 476 q 30 696 30 608 q 79 851 30 794 q 228 915 133 915 m 227 893 q 91 832 138 893 q 51 693 51 780 q 95 550 51 603 q 223 497 139 497 q 365 568 319 497 q 400 697 400 623 q 360 833 400 782 q 227 893 314 893 "},"P":{"x_min":122,"x_max":762,"ha":789,"o":"m 122 0 l 122 925 l 488 925 q 695 853 629 925 q 762 676 762 782 q 672 482 762 552 q 575 436 628 448 q 472 427 538 427 l 143 427 l 143 0 l 122 0 m 143 449 l 472 449 q 602 467 555 449 q 740 676 740 525 q 712 795 740 740 q 610 885 677 860 q 472 903 563 903 l 143 903 l 143 449 "},"À":{"x_min":9.296875,"x_max":768.28125,"ha":777,"o":"m 624 301 l 155 301 l 34 0 l 9 0 l 380 925 l 404 925 l 768 0 l 743 0 l 624 301 m 614 323 l 392 893 l 165 323 l 614 323 m 421 1023 l 204 1157 l 245 1157 l 463 1023 l 421 1023 "},"_":{"x_min":0,"x_max":681,"ha":681,"o":"m 0 -116 l 681 -116 l 681 -144 l 0 -144 l 0 -116 "},"ñ":{"x_min":95,"x_max":597,"ha":679,"o":"m 95 657 l 116 657 l 116 487 q 188 607 149 568 q 358 675 257 675 q 550 586 483 675 q 597 411 597 524 l 597 0 l 575 0 l 575 392 q 562 515 575 474 q 474 624 538 586 q 358 653 424 653 q 154 528 223 653 q 116 346 116 459 l 116 0 l 95 0 l 95 657 m 485 882 l 509 882 q 423 785 491 785 q 341 823 387 785 q 281 863 299 857 q 258 868 268 868 q 192 788 208 868 l 168 788 q 189 844 174 821 q 258 889 217 889 q 344 846 293 889 q 424 805 394 805 q 485 882 466 805 "},"+":{"x_min":135,"x_max":637,"ha":772,"o":"m 397 457 l 397 212 l 375 212 l 375 457 l 135 457 l 135 479 l 375 479 l 375 724 l 397 724 l 397 479 l 637 479 l 637 457 l 397 457 "},"‚":{"x_min":54,"x_max":110,"ha":163,"o":"m 86 125 l 110 125 l 110 10 q 54 -154 110 -79 l 54 -116 q 86 3 86 -76 l 86 125 "},"½":{"x_min":119.109375,"x_max":1081,"ha":1155,"o":"m 281 353 l 260 353 l 260 852 q 178 786 232 816 q 119 761 152 772 l 119 785 q 262 884 205 808 l 281 884 l 281 353 m 287 0 l 869 925 l 895 925 l 314 0 l 287 0 m 1081 21 l 1081 0 l 721 0 q 756 88 730 53 q 834 158 783 121 q 900 204 844 166 q 1002 292 964 249 q 1047 397 1047 342 q 1004 489 1047 456 q 904 520 966 520 q 775 454 814 520 q 754 365 754 418 q 755 349 754 360 l 732 349 l 732 360 q 764 477 732 435 q 904 541 812 541 q 1017 505 971 541 q 1069 397 1069 467 q 995 254 1069 325 q 868 156 958 218 q 761 56 780 94 q 750 21 753 39 l 1081 21 "},"Æ":{"x_min":9.703125,"x_max":1142.609375,"ha":1215,"o":"m 1142 21 l 1142 0 l 564 0 l 564 303 l 149 303 l 33 0 l 9 0 l 361 925 l 1142 925 l 1142 903 l 585 903 l 585 488 l 1082 488 l 1082 467 l 585 467 l 585 21 l 1142 21 m 564 325 l 564 903 l 377 903 l 158 325 l 564 325 "},"₣":{"x_min":122,"x_max":815.859375,"ha":817,"o":"m 143 467 l 143 0 l 122 0 l 122 925 l 683 925 l 683 903 l 143 903 l 143 489 l 441 489 l 441 467 l 143 467 m 556 0 l 534 0 l 534 657 l 556 657 l 556 463 q 699 637 599 598 q 815 657 751 657 l 815 637 q 719 624 756 637 q 590 502 633 594 q 556 323 556 429 l 556 0 "},"Ë":{"x_min":122,"x_max":728.109375,"ha":828,"o":"m 122 0 l 122 925 l 728 925 l 728 903 l 143 903 l 143 490 l 691 490 l 691 469 l 143 469 l 143 21 l 728 21 l 728 0 l 122 0 m 554 1021 l 532 1021 l 532 1158 l 554 1158 l 554 1021 m 295 1021 l 273 1021 l 273 1158 l 295 1158 l 295 1021 "},"'":{"x_min":120,"x_max":146,"ha":267,"o":"m 120 925 l 146 925 l 146 559 l 120 559 l 120 925 "},"ª":{"x_min":43,"x_max":404,"ha":439,"o":"m 404 392 l 404 370 q 392 370 398 370 q 343 381 356 370 q 331 428 331 392 l 331 448 q 182 359 278 359 q 83 388 124 359 q 43 472 43 418 q 123 579 43 549 q 264 596 155 596 q 326 613 312 596 q 331 639 331 619 l 331 654 q 299 734 331 711 q 216 756 269 756 q 104 703 132 756 q 88 642 93 682 l 65 642 q 82 711 70 688 q 214 777 118 777 q 320 745 282 777 q 353 651 353 717 l 353 434 q 359 398 353 403 q 384 392 366 392 q 404 392 394 392 m 331 592 q 302 577 321 584 q 213 571 282 571 q 64 474 64 571 q 98 404 64 429 q 181 380 130 380 q 297 435 252 380 q 331 533 331 477 l 331 592 "},"˛":{"x_min":358,"x_max":540.765625,"ha":681,"o":"m 423 0 l 461 0 q 417 -29 435 -11 q 379 -111 379 -69 q 400 -166 379 -144 q 451 -186 419 -186 q 524 -132 498 -186 l 540 -144 q 451 -208 509 -208 q 391 -187 417 -208 q 358 -111 358 -159 q 423 0 358 -48 "},"ð":{"x_min":41,"x_max":626,"ha":667,"o":"m 465 946 l 352 857 l 362 846 q 544 597 477 716 q 600 483 584 528 q 626 318 626 408 q 554 81 626 169 q 333 -18 473 -18 q 111 91 191 -18 q 41 329 41 188 q 127 586 41 492 q 334 675 207 675 q 507 617 432 675 q 336 844 451 717 l 220 753 l 207 771 l 321 860 l 310 872 q 227 968 257 932 l 243 982 q 298 919 265 956 l 316 898 l 327 886 l 338 873 l 453 963 l 465 946 m 334 653 q 143 572 217 653 q 62 329 62 483 q 128 104 62 196 q 332 3 201 3 q 538 95 463 3 q 604 313 604 177 q 542 548 604 459 q 334 653 471 653 "},"T":{"x_min":37,"x_max":718,"ha":754,"o":"m 386 0 l 364 0 l 364 903 l 37 903 l 37 925 l 718 925 l 718 903 l 386 903 l 386 0 "},"Þ":{"x_min":122,"x_max":762,"ha":789,"o":"m 122 0 l 122 925 l 143 925 l 143 814 l 488 814 q 695 742 629 814 q 762 565 762 671 q 672 371 762 441 q 575 325 628 337 q 472 316 537 316 l 143 316 l 143 0 l 122 0 m 143 338 l 472 338 q 602 357 555 338 q 740 565 740 414 q 712 684 740 629 q 610 774 677 749 q 472 792 563 792 l 143 792 l 143 338 "},"j":{"x_min":-27,"x_max":132.265625,"ha":227,"o":"m 132 656 l 132 -102 q 101 -200 132 -173 q -1 -228 69 -228 q -27 -228 -9 -228 l -27 -207 q -3 -207 -9 -207 q 93 -179 67 -207 q 111 -80 111 -159 l 111 656 l 132 656 m 132 792 l 111 792 l 111 925 l 132 925 l 132 792 "},"1":{"x_min":185.734375,"x_max":440.265625,"ha":771,"o":"m 440 0 l 419 0 l 419 860 q 323 765 379 804 q 185 695 251 715 l 185 717 q 316 784 246 735 q 419 884 373 825 l 440 884 l 440 0 "},"›":{"x_min":54,"x_max":178,"ha":268,"o":"m 54 519 l 178 344 l 178 321 l 54 149 l 54 191 l 158 333 l 54 476 l 54 519 "},"ä":{"x_min":41,"x_max":629,"ha":648,"o":"m 629 21 l 629 0 q 547 10 565 0 q 523 49 525 23 q 521 91 521 62 l 521 160 q 457 60 495 99 q 264 -18 379 -18 q 105 31 170 -18 q 41 170 41 80 q 169 347 41 297 q 402 368 222 368 q 488 384 468 368 q 517 411 511 395 q 521 448 521 419 l 521 474 q 504 568 521 535 q 321 653 462 653 q 144 584 197 653 q 102 460 112 540 l 79 460 q 136 609 88 559 q 318 675 198 675 q 490 622 429 675 q 535 548 524 591 q 543 468 543 519 l 543 101 q 549 40 543 49 q 604 21 560 21 l 629 21 m 521 390 q 469 357 503 367 q 317 344 434 344 q 128 295 192 344 q 76 232 95 273 q 62 165 62 200 q 121 44 62 88 q 264 3 177 3 q 462 99 386 3 q 521 270 521 173 l 521 390 m 464 762 l 442 762 l 442 899 l 464 899 l 464 762 m 204 762 l 183 762 l 183 899 l 204 899 l 204 762 "},"<":{"x_min":45,"x_max":635,"ha":681,"o":"m 635 734 l 635 706 l 75 462 l 635 218 l 635 190 l 45 448 l 45 477 l 635 734 "},"£":{"x_min":65.34375,"x_max":706.171875,"ha":772,"o":"m 691 112 l 706 96 q 642 35 677 61 q 498 -18 570 -18 q 362 15 447 -18 q 238 46 287 46 q 84 -14 167 46 l 65 9 q 157 106 136 75 q 216 272 216 190 q 175 428 216 333 l 76 428 l 76 449 l 164 449 q 147 480 155 465 q 91 579 102 552 q 70 674 70 629 q 111 801 70 744 q 228 881 151 854 q 361 902 289 902 q 612 786 538 902 q 653 626 653 724 l 653 601 l 630 601 q 584 786 630 725 q 362 880 513 880 q 169 828 245 880 q 91 671 91 775 q 129 548 91 612 q 189 449 175 474 l 394 449 l 394 428 l 199 428 q 237 273 237 344 q 180 104 237 187 q 91 9 152 63 q 163 53 145 46 q 243 67 198 67 q 365 40 295 67 q 426 17 407 24 q 499 3 463 3 q 691 112 594 3 "},"¹":{"x_min":119.109375,"x_max":281.265625,"ha":509,"o":"m 281 353 l 260 353 l 260 852 q 178 786 232 816 q 119 761 152 772 l 119 784 q 262 884 205 808 l 281 884 l 281 353 "},"t":{"x_min":59,"x_max":330,"ha":394,"o":"m 190 871 l 190 656 l 330 656 l 330 634 l 190 634 l 190 169 q 196 88 190 117 q 254 28 208 36 q 324 24 275 24 l 324 1 l 297 1 q 219 16 243 1 q 171 98 178 41 q 169 169 169 118 l 169 634 l 59 634 l 59 656 l 169 656 l 169 871 l 190 871 "},"¬":{"x_min":44.421875,"x_max":635,"ha":681,"o":"m 608 0 l 608 345 l 44 345 l 44 370 l 635 370 l 635 0 l 608 0 "},"ù":{"x_min":82,"x_max":573.265625,"ha":668,"o":"m 573 657 l 573 0 l 552 0 l 552 161 q 504 68 536 106 q 320 -19 432 -19 q 129 76 199 -19 q 82 261 82 142 l 82 657 l 103 657 l 103 261 q 157 77 103 143 q 317 2 218 2 q 506 105 435 2 q 545 195 535 147 q 552 290 552 229 l 552 657 l 573 657 m 349 763 l 132 899 l 173 899 l 391 763 l 349 763 "},"W":{"x_min":9.296875,"x_max":1149.109375,"ha":1158,"o":"m 1125 925 l 1149 925 l 883 0 l 850 0 l 580 912 l 307 0 l 281 0 l 9 925 l 33 925 l 294 34 l 560 925 l 599 925 l 867 21 l 1125 925 "},"ï":{"x_min":52,"x_max":159.265625,"ha":212,"o":"m 116 657 l 116 0 l 95 0 l 95 657 l 116 657 m 159 762 l 138 762 l 138 899 l 159 899 l 159 762 m 73 762 l 52 762 l 52 899 l 73 899 l 73 762 "},">":{"x_min":46,"x_max":635,"ha":681,"o":"m 46 190 l 46 218 l 604 462 l 46 706 l 46 734 l 635 477 l 635 448 l 46 190 "},"v":{"x_min":9.296875,"x_max":562.921875,"ha":572,"o":"m 538 657 l 562 657 l 313 0 l 283 0 l 9 657 l 35 657 l 298 23 l 538 657 "},"û":{"x_min":82,"x_max":573.265625,"ha":668,"o":"m 573 657 l 573 0 l 552 0 l 552 161 q 504 68 536 106 q 320 -19 432 -19 q 129 76 199 -19 q 82 261 82 142 l 82 657 l 103 657 l 103 261 q 157 77 103 143 q 317 2 218 2 q 506 105 435 2 q 545 195 535 147 q 552 290 552 229 l 552 657 l 573 657 m 532 763 l 492 763 l 331 883 l 174 763 l 136 763 l 318 901 l 347 901 l 532 763 "},"Ò":{"x_min":45,"x_max":888,"ha":933,"o":"m 466 944 q 770 810 651 944 q 888 464 888 677 q 770 116 888 249 q 460 -18 652 -18 q 162 116 281 -18 q 45 463 45 249 q 162 810 45 679 q 466 944 283 944 m 466 923 q 178 796 290 923 q 66 463 66 668 q 178 130 66 258 q 460 3 290 3 q 754 130 642 3 q 866 464 866 258 q 754 796 866 671 q 466 923 640 923 m 499 1023 l 282 1158 l 323 1158 l 540 1023 l 499 1023 "},"&":{"x_min":54,"x_max":724.359375,"ha":778,"o":"m 724 0 l 698 0 l 578 155 q 476 33 531 73 q 315 -19 405 -19 q 126 50 200 -19 q 71 132 91 83 q 54 215 54 174 q 151 405 54 321 q 301 510 189 438 l 230 598 q 165 747 165 678 q 215 872 165 822 q 351 925 266 925 q 475 881 425 925 q 533 750 533 830 q 441 584 533 662 q 335 504 420 566 l 574 199 q 607 359 607 275 l 630 359 q 589 176 630 263 l 724 0 m 314 491 q 156 381 204 424 q 75 216 75 308 q 142 66 75 128 q 222 19 174 36 q 314 2 268 2 q 477 64 404 2 q 562 174 518 98 l 314 491 m 321 523 q 442 611 411 583 q 512 750 512 676 q 464 863 512 819 q 349 903 420 903 q 232 861 277 903 q 187 750 187 817 q 204 677 187 712 q 244 620 213 659 l 321 523 "},"˝":{"x_min":240.59375,"x_max":560.921875,"ha":681,"o":"m 416 763 l 385 763 l 530 899 l 560 899 l 416 763 m 271 763 l 240 763 l 385 899 l 415 899 l 271 763 "},"Ð":{"x_min":32,"x_max":824.265625,"ha":869,"o":"m 123 469 l 32 469 l 32 490 l 123 490 l 123 925 l 389 925 q 588 894 513 925 q 771 721 713 844 q 824 465 824 609 q 779 231 824 337 q 600 36 720 92 q 388 0 523 0 l 123 0 l 123 469 m 144 469 l 144 21 l 381 21 q 591 55 519 21 q 760 241 704 108 q 803 470 803 341 q 672 818 803 702 q 533 889 614 870 q 379 903 473 903 l 144 903 l 144 490 l 580 490 l 580 469 l 144 469 "},"I":{"x_min":141,"x_max":162.265625,"ha":303,"o":"m 162 925 l 162 0 l 141 0 l 141 925 l 162 925 "},"ˉ":{"x_min":143,"x_max":538,"ha":681,"o":"m 538 845 l 538 824 l 143 824 l 143 845 l 538 845 "},"G":{"x_min":45,"x_max":866,"ha":939,"o":"m 866 434 l 866 0 l 844 0 l 844 269 q 763 105 817 167 q 644 17 716 50 q 472 -19 562 -19 q 256 38 358 -19 q 88 223 142 103 q 45 449 45 323 q 154 793 45 657 q 463 936 269 936 q 776 778 660 936 q 844 632 822 717 l 823 632 q 746 786 802 716 q 465 915 643 915 q 168 778 280 915 q 66 450 66 652 q 189 116 66 238 q 474 2 304 2 q 693 69 600 2 q 832 277 800 146 q 842 413 842 324 l 487 413 l 487 434 l 866 434 "},"`":{"x_min":138.234375,"x_max":396.765625,"ha":681,"o":"m 354 763 l 138 899 l 179 899 l 396 763 l 354 763 "},"·":{"x_min":82,"x_max":103.265625,"ha":185,"o":"m 82 403 l 103 403 l 103 278 l 82 278 l 82 403 "},"r":{"x_min":95,"x_max":376.125,"ha":376,"o":"m 116 0 l 95 0 l 95 657 l 116 657 l 116 464 q 259 637 160 599 q 376 657 311 657 l 376 637 q 279 624 316 637 q 150 503 194 595 q 116 323 116 430 l 116 0 "},"¿":{"x_min":54,"x_max":580,"ha":635,"o":"m 302 521 l 324 521 q 324 504 324 513 q 304 399 324 441 q 260 335 290 367 q 202 278 246 319 q 114 182 144 225 q 75 65 75 126 q 144 -85 75 -27 q 313 -140 211 -140 q 523 -26 455 -140 q 556 140 556 28 l 580 140 q 571 41 580 77 q 465 -117 549 -61 q 310 -162 399 -162 q 128 -100 202 -162 q 54 64 54 -37 q 97 196 54 134 q 192 298 121 230 q 275 390 256 359 q 302 521 302 432 m 302 633 l 302 758 l 323 758 l 323 633 l 302 633 "},"ý":{"x_min":9.5625,"x_max":559.859375,"ha":569,"o":"m 559 657 l 273 -96 q 215 -198 242 -177 q 123 -224 184 -224 q 86 -221 109 -224 l 86 -199 q 122 -202 110 -202 q 202 -179 179 -202 q 246 -99 224 -157 l 285 1 l 9 657 l 36 657 l 298 27 l 536 657 l 559 657 m 270 763 l 228 763 l 445 900 l 486 900 l 270 763 "},"x":{"x_min":27.25,"x_max":622.078125,"ha":649,"o":"m 622 0 l 589 0 l 322 328 l 54 0 l 27 0 l 307 346 l 54 657 l 81 657 l 322 363 l 557 657 l 589 657 l 338 346 l 622 0 "},"è":{"x_min":41,"x_max":610,"ha":651,"o":"m 578 229 l 601 229 q 537 79 585 139 q 328 -18 461 -18 q 132 63 211 -18 q 41 322 41 158 q 114 572 41 476 q 211 649 152 621 q 333 676 267 676 q 506 613 434 676 q 601 438 581 547 q 610 331 610 393 q 610 317 610 330 l 67 317 q 117 113 67 188 q 329 3 191 3 q 530 104 462 3 q 578 229 567 160 m 587 339 q 570 473 587 420 q 478 608 541 561 q 330 654 416 654 q 165 595 233 654 q 68 339 68 513 l 587 339 m 339 763 l 123 899 l 164 899 l 381 763 l 339 763 "},"º":{"x_min":43,"x_max":403.265625,"ha":446,"o":"m 223 777 q 363 708 312 777 q 403 559 403 653 q 359 419 403 472 q 223 359 309 359 q 86 425 134 359 q 43 569 43 485 q 96 724 43 666 q 223 777 145 777 m 223 756 q 111 709 155 756 q 64 569 64 658 q 103 438 64 491 q 222 380 146 380 q 342 433 300 380 q 382 559 382 481 q 345 695 382 644 q 223 756 303 756 "},"Ø":{"x_min":45,"x_max":886.265625,"ha":932,"o":"m 835 909 l 850 893 l 773 804 q 886 461 886 668 q 767 109 886 235 q 627 13 709 47 q 462 -18 550 -18 q 167 111 288 -18 l 76 8 l 60 23 l 152 128 q 84 240 104 196 q 45 466 45 333 q 161 811 45 682 q 462 943 279 943 q 758 821 637 943 l 835 909 m 182 128 q 262 59 229 81 q 461 3 348 3 q 752 126 638 3 q 865 455 865 247 q 758 786 865 656 l 182 128 m 742 803 q 461 921 628 921 q 254 860 348 921 q 66 467 66 739 q 103 254 66 344 q 169 147 123 206 l 742 803 "},"÷":{"x_min":135,"x_max":637,"ha":772,"o":"m 135 479 l 637 479 l 637 458 l 135 458 l 135 479 m 386 706 q 409 696 399 706 q 419 673 419 687 q 409 650 419 659 q 386 640 399 640 q 363 650 373 640 q 354 673 354 659 q 363 696 354 687 q 386 706 373 706 m 386 286 q 409 276 399 286 q 419 253 419 267 q 409 230 419 239 q 386 220 399 220 q 363 230 373 220 q 354 252 354 239 q 363 276 354 267 q 386 286 373 286 "},"h":{"x_min":95,"x_max":597,"ha":679,"o":"m 95 925 l 116 925 l 116 487 q 188 607 149 568 q 358 675 257 675 q 550 586 483 675 q 597 411 597 524 l 597 0 l 575 0 l 575 392 q 562 515 575 474 q 474 624 538 586 q 358 653 424 653 q 154 528 223 653 q 116 346 116 459 l 116 0 l 95 7 l 95 925 "},".":{"x_min":91,"x_max":112.265625,"ha":203,"o":"m 91 125 l 112 125 l 112 0 l 91 0 l 91 125 "},";":{"x_min":54,"x_max":110,"ha":198,"o":"m 86 125 l 110 125 l 110 10 q 54 -154 110 -79 l 54 -116 q 86 3 86 -76 l 86 125 m 87 656 l 108 656 l 108 531 l 87 531 l 87 656 "},"f":{"x_min":54,"x_max":326,"ha":363,"o":"m 178 0 l 157 0 l 157 635 l 54 635 l 54 656 l 157 656 l 157 745 q 164 844 157 818 q 217 913 178 893 q 294 927 244 927 q 326 927 307 927 l 326 905 q 257 902 278 905 q 192 857 208 896 q 178 763 178 828 l 178 656 l 311 656 l 311 635 l 178 635 l 178 0 "},"“":{"x_min":91,"x_max":271,"ha":324,"o":"m 113 672 l 91 672 l 91 787 q 100 881 91 845 q 144 953 110 916 l 144 915 q 118 863 124 888 q 113 787 113 836 l 113 672 m 240 672 l 218 672 l 218 787 q 227 881 218 845 q 271 953 237 916 l 271 915 q 245 863 251 888 q 240 787 240 836 l 240 672 "},"A":{"x_min":9.296875,"x_max":768.28125,"ha":777,"o":"m 624 301 l 155 301 l 34 0 l 9 0 l 380 925 l 404 925 l 768 0 l 743 0 l 624 301 m 614 323 l 392 893 l 165 323 l 614 323 "},"6":{"x_min":84,"x_max":687.265625,"ha":772,"o":"m 664 677 l 643 677 q 579 807 626 754 q 395 880 515 880 q 126 627 178 880 q 105 346 105 521 q 135 442 117 409 q 247 553 172 513 q 391 591 315 591 q 603 498 516 591 q 687 288 687 411 q 608 78 687 166 q 521 13 572 38 q 389 -18 459 -18 q 224 32 299 -18 q 104 202 137 92 q 84 393 84 273 q 155 769 84 649 q 395 902 234 902 q 604 809 527 902 q 664 677 645 760 m 393 569 q 195 490 276 569 q 112 285 112 407 q 193 86 112 169 q 388 3 274 3 q 584 86 503 3 q 666 286 666 169 q 624 437 666 367 q 513 539 584 503 q 393 569 456 569 "},"‘":{"x_min":91,"x_max":144,"ha":197,"o":"m 113 672 l 91 672 l 91 787 q 100 881 91 845 q 144 953 110 916 l 144 915 q 118 863 124 888 q 113 787 113 836 l 113 672 "},"π":{"x_min":25,"x_max":655,"ha":680,"o":"m 123 0 l 123 638 l 25 638 l 25 663 l 655 663 l 655 638 l 558 638 l 558 0 l 531 0 l 531 638 l 150 638 l 150 0 l 123 0 "},"O":{"x_min":45,"x_max":888,"ha":933,"o":"m 466 944 q 770 810 651 944 q 888 464 888 677 q 770 116 888 249 q 460 -18 652 -18 q 162 116 281 -18 q 45 463 45 249 q 162 810 45 679 q 466 944 283 944 m 466 923 q 178 796 290 923 q 66 463 66 668 q 178 130 66 258 q 460 3 290 3 q 754 130 642 3 q 866 464 866 258 q 754 796 866 671 q 466 923 640 923 "},"n":{"x_min":95,"x_max":597,"ha":679,"o":"m 95 657 l 116 657 l 116 487 q 188 607 149 568 q 358 675 257 675 q 550 586 483 675 q 597 411 597 524 l 597 0 l 575 0 l 575 392 q 562 515 575 474 q 474 624 538 586 q 358 653 424 653 q 154 528 223 653 q 116 346 116 459 l 116 0 l 95 0 l 95 657 "},"3":{"x_min":82,"x_max":691,"ha":772,"o":"m 82 300 l 107 300 q 107 287 107 290 q 151 114 107 178 q 255 28 190 57 q 384 2 313 2 q 576 59 499 2 q 669 252 669 130 q 615 396 669 338 q 459 462 563 451 q 350 466 425 466 l 350 491 q 368 491 366 491 q 536 516 480 491 q 616 581 588 539 q 645 678 645 624 q 573 828 645 769 q 398 880 509 880 q 171 779 243 880 q 125 609 125 716 l 101 609 q 112 713 101 675 q 233 862 141 810 q 397 902 304 902 q 587 843 513 902 q 667 678 667 781 q 575 513 667 570 q 470 478 534 487 q 550 461 524 470 q 650 385 611 438 q 691 250 691 328 q 591 42 691 119 q 386 -19 509 -19 q 201 31 279 -19 q 82 300 82 109 "},"9":{"x_min":84,"x_max":687.265625,"ha":772,"o":"m 106 207 l 127 207 q 191 76 145 128 q 375 2 256 2 q 644 255 593 2 q 666 537 666 361 q 636 441 654 474 q 524 330 599 371 q 379 293 456 293 q 167 384 254 293 q 84 595 84 471 q 162 805 84 717 q 249 870 198 845 q 381 902 312 902 q 547 851 472 902 q 666 680 634 790 q 687 489 687 610 q 616 113 687 233 q 375 -19 536 -19 q 167 73 244 -19 q 106 207 125 122 m 385 880 q 182 794 264 880 q 105 597 105 713 q 183 400 105 483 q 382 314 265 314 q 578 397 496 314 q 659 597 659 480 q 615 751 659 680 q 498 854 573 819 q 385 880 443 880 "},"l":{"x_min":95,"x_max":116.265625,"ha":212,"o":"m 116 0 l 95 0 l 95 925 l 116 925 l 116 0 "},"¤":{"x_min":37.015625,"x_max":702.25,"ha":739,"o":"m 619 229 l 702 144 l 687 129 l 603 214 q 368 129 512 129 q 138 217 228 129 l 52 129 l 37 144 l 124 233 q 41 476 41 335 q 116 711 41 616 l 37 792 l 52 807 l 130 727 q 370 823 223 823 q 608 728 516 823 l 687 807 l 702 792 l 623 711 q 698 465 698 614 q 619 229 698 320 m 370 801 q 153 719 237 801 q 62 477 62 631 q 137 251 62 342 q 369 150 221 150 q 601 242 517 150 q 677 461 677 325 q 607 696 677 608 q 370 801 524 801 "},"4":{"x_min":75.359375,"x_max":695,"ha":771,"o":"m 533 0 l 512 0 l 512 235 l 75 235 l 75 266 l 504 883 l 533 883 l 533 257 l 695 257 l 695 235 l 533 235 l 533 0 m 512 257 l 512 856 l 97 257 l 512 257 "},"p":{"x_min":95,"x_max":660.265625,"ha":701,"o":"m 95 657 l 116 657 l 116 467 q 178 590 142 549 q 380 675 251 675 q 571 600 499 675 q 660 336 660 508 q 577 66 660 158 q 487 4 541 26 q 376 -18 435 -18 q 182 60 259 -18 q 116 178 142 101 l 116 -222 l 95 -222 l 95 657 m 380 653 q 191 569 260 653 q 116 322 116 479 q 194 84 116 172 q 375 3 267 3 q 514 43 451 3 q 609 166 577 84 q 639 331 639 242 q 553 585 639 498 q 380 653 487 653 "},"‡":{"x_min":54,"x_max":674,"ha":729,"o":"m 375 925 l 375 600 l 674 600 l 674 579 l 375 579 l 375 196 l 674 196 l 674 175 l 375 175 l 375 -149 l 353 -149 l 353 175 l 54 175 l 54 196 l 353 196 l 353 579 l 54 579 l 54 600 l 353 600 l 353 925 l 375 925 "},"à":{"x_min":41,"x_max":629,"ha":648,"o":"m 629 21 l 629 0 q 547 10 565 0 q 523 49 525 23 q 521 91 521 62 l 521 160 q 457 60 495 99 q 264 -18 379 -18 q 105 31 170 -18 q 41 170 41 80 q 169 347 41 297 q 402 368 222 368 q 488 384 467 368 q 517 411 511 395 q 521 448 521 419 l 521 474 q 504 568 521 535 q 321 653 462 653 q 144 584 197 653 q 102 460 112 540 l 79 460 q 136 609 88 559 q 318 675 198 675 q 489 622 428 675 q 535 548 524 591 q 543 468 543 519 l 543 101 q 549 40 543 49 q 604 21 560 21 l 629 21 m 521 390 q 468 357 503 367 q 317 344 433 344 q 128 295 192 344 q 76 232 95 273 q 62 165 62 200 q 121 44 62 88 q 264 3 177 3 q 461 99 386 3 q 521 270 521 173 l 521 390 m 337 763 l 121 900 l 162 900 l 379 763 l 337 763 "},"Ü":{"x_min":122,"x_max":798,"ha":920,"o":"m 776 925 l 798 925 l 798 372 q 779 189 798 248 q 459 -18 712 -18 q 188 96 274 -18 q 128 239 142 156 q 122 372 122 282 l 122 925 l 143 925 l 143 372 q 161 201 143 261 q 459 3 221 3 q 716 114 637 3 q 769 247 756 169 q 776 372 776 292 l 776 925 m 600 1022 l 579 1022 l 579 1159 l 600 1159 l 600 1022 m 341 1022 l 320 1022 l 320 1159 l 341 1159 l 341 1022 "},"ó":{"x_min":41,"x_max":626,"ha":667,"o":"m 334 676 q 504 620 431 676 q 626 314 626 527 q 554 81 626 170 q 333 -18 473 -18 q 111 91 190 -18 q 41 330 41 189 q 127 587 41 491 q 334 676 207 676 m 334 654 q 143 572 217 654 q 62 330 62 484 q 128 104 62 196 q 332 3 201 3 q 538 95 463 3 q 604 314 604 177 q 542 549 604 459 q 334 654 470 654 m 319 763 l 277 763 l 494 900 l 535 900 l 319 763 "}}}
